<svg xmlns="http://www.w3.org/2000/svg" width="269.41" height="168.825" viewBox="0 0 269.41 168.825">
    <defs>
        <style>
            .cls-1{fill:none}.cls-2{clip-path:url(#clip-path)}.cls-3{fill:#518b15}.cls-4{fill:#b0c368}.cls-5{fill:#8db23e}.cls-6{fill:#71a52b}.cls-7{fill:#62981c}.cls-8{fill:#3a7904}.cls-9{fill:#363636}.cls-10{fill:#757575}.cls-11{fill:#939393}.cls-12{fill:#4f4f4f}.cls-13{fill:url(#linear-gradient)}.cls-14{fill:#ff844a}.cls-15{fill:#1e1e1e}.cls-16{fill:#8d0477}.cls-17{fill:#680054}.cls-18{fill:#4a003c}.cls-19{fill:#a02e8e}.cls-20{fill:#fa2289}.cls-21{fill:#d1b9a0}.cls-22{fill:#fb3e98}.cls-23{fill:#c9166e}.cls-24{fill:#fc5aa7}.cls-25{fill:#f87748}.cls-26{fill:#fff}.cls-27{fill:#c2c2c2}.cls-28{fill:#02608e}.cls-29{fill:#2a79a0}.cls-30{fill:#004a79}.cls-31{fill:#ff9c67}.cls-32{fill:#ffc09e}.cls-33{fill:#1a6f99}.cls-34{fill:#633910}.cls-35{fill:#005983}.cls-36{fill:#432300}.cls-37{fill:#60350b}.cls-38{fill:#d02222}.cls-39{fill:#754a1f}.cls-40{fill:#f87246}.cls-41{fill:#f97950}.cls-42{fill:#f98964}.cls-43{fill:#390000}.cls-44{fill:#ff6838}.cls-45{fill:#1d6bb5}.cls-46{fill:#004ea0}.cls-47{fill:#a91d1d}.cls-48{fill:#a6a6a6}.cls-49{fill:#ff9361}.cls-50{fill:#a61616}.cls-51{fill:#d33131}.cls-52{fill:#ff9f67}.cls-53{fill:#ffb48c}.cls-54{fill:#d1d1d1}.cls-55{fill:#d53b3b}.cls-56{fill:#2e0000}.cls-57{fill:#ffac7b}.cls-58{fill:#f98660}.cls-59{fill:#323232}.cls-60{fill:#681c1a}
        </style>
        <clipPath id="clip-path">
            <ellipse id="Ellipse_60" cx="134.705" cy="35.155" class="cls-1" data-name="Ellipse 60" rx="134.705" ry="35.155"/>
        </clipPath>
        <linearGradient id="linear-gradient" x1=".332" x2=".682" y1=".952" y2=".202" gradientUnits="objectBoundingBox">
            <stop offset="0" stop-color="#ffcba6"/>
            <stop offset="1" stop-color="#ff9f6c"/>
        </linearGradient>
    </defs>
    <g id="Group_322" data-name="Group 322" transform="translate(-152.5 -75.411)">
        <g id="Group_321" data-name="Group 321" transform="translate(152.5 75.411)">
            <g id="Group_320" data-name="Group 320">
                <g id="Group_278" data-name="Group 278" transform="translate(0 98.514)">
                    <g id="Group_277" data-name="Group 277">
                        <g id="Group_276" class="cls-2" data-name="Group 276">
                            <ellipse id="Ellipse_59" cx="134.705" cy="35.155" class="cls-3" data-name="Ellipse 59" rx="134.705" ry="35.155"/>
                            <g id="Group_275" data-name="Group 275" transform="translate(-4.672 -1.348)">
                                <path id="Path_460" d="M137.5 501.088v9.223l283.425.143v-9.366z" class="cls-4" data-name="Path 460" transform="translate(-137.5 -501.088)"/>
                                <path id="Path_461" d="M137.5 530.588v12.445l283.425.193v-12.638z" class="cls-5" data-name="Path 461" transform="translate(-137.5 -521.4)"/>
                                <path id="Path_462" d="M137.5 570.088v12.445l283.425.193v-12.638z" class="cls-6" data-name="Path 462" transform="translate(-137.5 -548.597)"/>
                                <path id="Path_463" d="M137.5 606.088v16.674l283.425.259v-16.933z" class="cls-7" data-name="Path 463" transform="translate(-137.5 -573.385)"/>
                                <path id="Path_464" d="M137.5 660.088v23.639l283.425.367v-24.006z" class="cls-3" data-name="Path 464" transform="translate(-137.5 -610.566)"/>
                                <path id="Path_465" d="M137.5 734.166v30.976l283.425.481v-31.457z" class="cls-8" data-name="Path 465" transform="translate(-137.5 -661.572)"/>
                            </g>
                        </g>
                    </g>
                </g>
                <g id="Group_319" data-name="Group 319" transform="translate(25.711)">
                    <ellipse id="Ellipse_61" cx="24.423" cy="5.604" class="cls-3" data-name="Ellipse 61" rx="24.423" ry="5.604" transform="translate(173.05 113.073)"/>
                    <ellipse id="Ellipse_62" cx="11.329" cy="3.705" class="cls-3" data-name="Ellipse 62" rx="11.329" ry="3.705" transform="translate(158.315 103.91)"/>
                    <g id="Group_279" data-name="Group 279" transform="translate(159.705 99.27)">
                        <path id="Path_466" d="M757.6 509.8c3.374-.225 9.732 1.445 11.333 3.995 1.192 1.9-1.168 4.122-5.679 5.354-5.686 1.551-13.275-1.071-14.117-1.377-3.708-1.342.822-7.459 8.463-7.972z" class="cls-9" data-name="Path 466" transform="translate(-747.82 -509.178)"/>
                        <path id="Path_467" d="M758.529 507.862c3.374-.226 10.071 1.624 11.749 4.123s-3.746 5.33-8.422 5.433a38.731 38.731 0 0 1-11.077-1.819c-3.707-1.345.109-7.226 7.75-7.737z" class="cls-10" data-name="Path 467" transform="translate(-748.872 -507.843)"/>
                        <path id="Path_468" d="M767.839 510.743c1.667-.272 5.169.16 6.217 1.129s-1.425 2.45-3.753 2.737a23.394 23.394 0 0 1-5.688-.19c-1.966-.374-.552-3.06 3.224-3.676z" class="cls-11" data-name="Path 468" transform="translate(-758.775 -509.785)"/>
                        <path id="Path_469" d="M770.279 513.408c-1.011-1.506-3.845-2.776-6.675-3.5a13.012 13.012 0 0 1 4.277 2.511 2.148 2.148 0 0 1-.758 2.952 12.542 12.542 0 0 1-6.134 1.523c-3.316.017-10.529-.649-11.1-3.363-.912 1.477-.716 2.907.887 3.488a38.73 38.73 0 0 0 11.077 1.819c4.68-.1 10.104-2.931 8.426-5.43z" class="cls-12" data-name="Path 469" transform="translate(-748.873 -509.266)"/>
                    </g>
                    <ellipse id="Ellipse_63" cx="12.373" cy="3.705" class="cls-3" data-name="Ellipse 63" rx="12.373" ry="3.705" transform="translate(0 121.278)"/>
                    <g id="Group_280" data-name="Group 280" transform="translate(1.655 116.637)">
                        <path id="Path_470" d="M250.144 565.565c3.374-.226 9.732 1.445 11.333 3.995 1.192 1.9-1.168 4.123-5.679 5.354-5.686 1.551-13.275-1.071-14.117-1.377-3.707-1.344.819-7.461 8.463-7.972z" class="cls-9" data-name="Path 470" transform="translate(-240.364 -564.941)"/>
                        <path id="Path_471" d="M251.074 563.625c3.374-.225 10.071 1.624 11.749 4.123s-3.747 5.331-8.422 5.433a38.731 38.731 0 0 1-11.077-1.819c-3.708-1.344.109-7.226 7.75-7.737z" class="cls-10" data-name="Path 471" transform="translate(-241.417 -563.606)"/>
                        <path id="Path_472" d="M260.384 566.506c1.667-.271 5.169.16 6.217 1.129s-1.425 2.449-3.753 2.737a23.393 23.393 0 0 1-5.688-.19c-1.966-.374-.552-3.06 3.224-3.676z" class="cls-11" data-name="Path 472" transform="translate(-251.32 -565.548)"/>
                        <path id="Path_473" d="M262.824 569.171c-1.011-1.506-3.845-2.775-6.675-3.5a13.012 13.012 0 0 1 4.277 2.511 2.148 2.148 0 0 1-.758 2.952 12.545 12.545 0 0 1-6.134 1.523c-3.316.017-10.529-.649-11.1-3.363-.912 1.477-.716 2.907.887 3.488A38.732 38.732 0 0 0 254.4 574.6c4.678-.1 10.1-2.93 8.424-5.429z" class="cls-12" data-name="Path 473" transform="translate(-241.418 -565.029)"/>
                    </g>
                    <g id="Group_281" data-name="Group 281" transform="translate(174.925 99.408)">
                        <path id="Path_474" d="M817.189 512.394c7.073-.473 20.4 3.03 23.756 8.374 2.5 3.979-2.448 8.642-11.9 11.222-11.919 3.253-27.827-2.246-29.593-2.886-7.776-2.817 1.72-15.64 17.737-16.71z" class="cls-9" data-name="Path 474" transform="translate(-796.687 -511.086)"/>
                        <path id="Path_475" d="M819.137 508.327c7.073-.473 21.112 3.4 24.63 8.643s-7.854 11.174-17.654 11.388-21.455-3.173-23.221-3.813c-7.772-2.818.228-15.145 16.245-16.218z" class="cls-10" data-name="Path 475" transform="translate(-798.894 -508.288)"/>
                        <path id="Path_476" d="M838.653 514.367c3.495-.57 10.836.335 13.033 2.366s-2.988 5.135-7.867 5.738a49.045 49.045 0 0 1-11.924-.4c-4.12-.782-1.156-6.414 6.758-7.704z" class="cls-11" data-name="Path 476" transform="translate(-819.653 -512.358)"/>
                        <path id="Path_477" d="M843.769 519.954c-2.12-3.157-8.059-5.818-13.993-7.333 2.411.852 7.211 3.252 8.965 5.264 1.419 1.751.5 5.015-1.589 6.188a26.293 26.293 0 0 1-12.857 3.192c-6.951.036-22.072-1.36-23.26-7.049-1.911 3.1-1.5 6.094 1.859 7.312 1.766.64 13.421 4.027 23.221 3.813s21.172-6.149 17.654-11.387z" class="cls-12" data-name="Path 477" transform="translate(-798.896 -511.271)"/>
                    </g>
                    <g id="Group_318" data-name="Group 318" transform="translate(26.614)">
                        <ellipse id="Ellipse_64" cx="82.38" cy="15.723" class="cls-8" data-name="Ellipse 64" rx="82.38" ry="15.723" transform="translate(0 121.495)"/>
                        <g id="Group_301" data-name="Group 301" transform="translate(64.149)">
                            <g id="Group_300" data-name="Group 300">
                                <g id="Group_299" data-name="Group 299">
                                    <path id="Path_478" d="M595.5 594.667c-6.291.652-15.05 7.315-13.233 10.717 1.123 2.1 6.523.512 8.573.606 1.118.051 2.811 1.522 6.1 2.236 2.982-1.724 4.753-8.9 4.753-8.9-3.169-.559-6.193-4.659-6.193-4.659z" class="cls-13" data-name="Path 478" transform="translate(-564.717 -468.356)"/>
                                    <path id="Path_479" d="M595.5 594.667c-6.291.652-15.05 7.315-13.233 10.717 1.123 2.1 6.523.512 8.573.606 1.118.051 2.811 1.522 6.1 2.236 2.982-1.724 4.753-8.9 4.753-8.9-3.169-.559-6.193-4.659-6.193-4.659z" class="cls-14" data-name="Path 479" transform="translate(-564.717 -468.356)"/>
                                    <path id="Path_480" d="M582.263 605.384c.7 1.319 3.092 1.185 5.279.924 1.011-2.7.031-4.022.481-4.826.59-1.056 4.287-4.333 8.511-4.924.035-.261-.426-1.005-.539-1.269-.319-.377-.5-.623-.5-.623-6.29.653-15.049 7.317-13.232 10.718z" class="cls-15" data-name="Path 480" transform="translate(-564.717 -468.356)"/>
                                    <path id="Path_481" d="M650.976 624.177c-9.226-.746-21-4.714-21.061-5.685-.155-2.516 3.759-8.915 3.759-8.915l20.564 3.231s2.329 9.598-3.262 11.369z" class="cls-16" data-name="Path 481" transform="translate(-597.692 -478.622)"/>
                                    <path id="Path_482" d="M636.866 615.091a47.5 47.5 0 0 1 9.144 4.51c.153-1.146-.716-2.263-.276-3.284a14.063 14.063 0 0 1-4.984-5.89l-3.179-.5a46.832 46.832 0 0 0-3.685 6.9c.574-.994 1.727-2.122 2.98-1.736z" class="cls-17" data-name="Path 482" transform="translate(-600.43 -478.866)"/>
                                    <path id="Path_483" d="M706.483 576.369c4.215 2.049 8.813 8.061 8.649 12.521-.175 4.734-4.479 7.347-9.786 6.536.007-3.552-12.615-16.281-12.615-16.281 3.319-1.245 13.752-2.776 13.752-2.776z" class="cls-17" data-name="Path 483" transform="translate(-640.946 -455.757)"/>
                                    <path id="Path_484" d="M726.528 601.25a20.616 20.616 0 0 0-7.116-8.055c-.753 1.544 1.227 6.448.626 8.141 1.478 2 2.534 3.789 2.525 4.786 4.035.906 8.669-.459 9.786-3.438-1.863 1.656-4.166 2.166-5.821-1.434z" class="cls-18" data-name="Path 484" transform="translate(-659.198 -467.343)"/>
                                    <path id="Path_485" d="M643.943 607.014c12.953 1.491 14.492-2.627 14.492-7.939 0-4.012-4.287-11.09-9.971-13.978-13.233-.652-27.352-.076-27.352-.076-1.443 7.501 22.831 21.993 22.831 21.993z" class="cls-16" data-name="Path 485" transform="translate(-591.591 -461.552)"/>
                                    <path id="Path_486" d="M721.858 606.608c.893 1.351.819 2.288.237 2.627s-1.59-.716-2.053-1.511-1.172-2.26-.589-2.6 1.897.717 2.405 1.484z" class="cls-19" data-name="Path 486" transform="translate(-659.194 -475.512)"/>
                                    <path id="Path_487" d="M745.577 590.128c.917 1.335.86 2.273.283 2.623s-1.6-.688-2.08-1.474-1.212-2.238-.636-2.588 1.912.68 2.433 1.439z" class="cls-16" data-name="Path 487" transform="translate(-675.513 -464.19)"/>
                                    <path id="Path_488" d="M634.215 583.454a41.176 41.176 0 0 0-8.253.63c-.409 2.729 2 5.851 4.9 8.537 3.908 3.621 18.339 14.611 26.063 11.8-9.88.052-26.761-17.215-22.71-20.967z" class="cls-17" data-name="Path 488" transform="translate(-594.942 -460.635)"/>
                                    <path id="Path_489" d="M623.422 431.442c12.28-.348 20.994.028 23.052 10.625a38.209 38.209 0 0 1-22.518 10.974l-21.9-4.962c-2.489-6.863 1.76-16.079 21.366-16.637z" class="cls-20" data-name="Path 489" transform="translate(-578.071 -355.914)"/>
                                    <path id="Path_490" d="M642.207 431.418c-1.041.221-2.13.4-3.272.538l-.1.011-.1.013a35.755 35.755 0 0 1-5.21.262 28.712 28.712 0 0 0-6.087 1.818 30.872 30.872 0 0 0 11.484.576l.1-.012.1-.011a30.852 30.852 0 0 0 10.708-3.146c-2.33-.14-4.885-.118-7.623-.049z" class="cls-21" data-name="Path 490" transform="translate(-595.989 -355.914)"/>
                                    <path id="Path_491" d="M614.376 450.415c-.919.932-.91 1.76-.39 2.205s1.527-.2 2.01-.767 1.471-1.436.951-1.881-2.047-.086-2.571.443z" class="cls-22" data-name="Path 491" transform="translate(-586.483 -368.588)"/>
                                    <path id="Path_492" d="M628.8 468.532c-4.137-2.317-.745-7.357-.745-7.357-2.884 1.86-4.681 6.953-4.681 6.953z" class="cls-23" data-name="Path 492" transform="translate(-593.193 -376.441)"/>
                                    <path id="Path_493" d="M651.151 441.845c3.429-.445 5.823-3.817 5.811-7.759q-.773-.032-1.593-.033a5.5 5.5 0 0 1-4.565 4.585 5.935 5.935 0 0 1-5.811-3.767c-.608.12-1.2.251-1.77.4.936 4.175 4.352 7.038 7.928 6.574z" class="cls-23" data-name="Path 493" transform="translate(-606.859 -357.766)"/>
                                    <path id="Path_494" d="M725.568 442.987c.781.773.714 1.519.2 1.957s-1.394-.073-1.8-.546-1.254-1.187-.742-1.625a2.257 2.257 0 0 1 2.342.214z" class="cls-22" data-name="Path 494" transform="translate(-661.835 -363.604)"/>
                                    <path id="Path_495" d="M705.092 462.622c4.524-2.593 1.453-8.026 1.453-8.026 2.931 1.785 4.858 6.829 4.858 6.829z" class="cls-23" data-name="Path 495" transform="translate(-649.457 -371.911)"/>
                                    <path id="Path_496" d="M651.163 441.043a6.83 6.83 0 0 0 5.871-6.8q-.766-.017-1.58-.007a5.368 5.368 0 0 1-4.592 4.036 5.788 5.788 0 0 1-5.713-3.185 36.6 36.6 0 0 0-1.761.369 7.2 7.2 0 0 0 7.775 5.587z" class="cls-24" data-name="Path 496" transform="translate(-606.972 -357.886)"/>
                                    <g id="Group_282" data-name="Group 282" transform="translate(36.417 76.342)">
                                        <path id="Path_497" d="M646.544 438.754a6.112 6.112 0 0 1-1.394-1.781 36.6 36.6 0 0 0-1.761.369 7.638 7.638 0 0 0 .483 1.389q1.291.069 2.672.023z" class="cls-21" data-name="Path 497" transform="translate(-643.389 -436.118)"/>
                                        <path id="Path_498" d="M682.338 434.238q-.766-.017-1.58-.007a5.633 5.633 0 0 1-.62 1.47q1.111-.288 2.141-.638a7.3 7.3 0 0 0 .059-.825z" class="cls-21" data-name="Path 498" transform="translate(-668.693 -434.228)"/>
                                    </g>
                                    <path id="Path_499" d="M653.1 438.276a5.367 5.367 0 0 0 4.592-4.036c-1.512.018-3.147.1-4.9.2a42.778 42.778 0 0 0-6.147.794c.247-.05.5-.1.748-.147a5.788 5.788 0 0 0 5.707 3.189z" class="cls-25" data-name="Path 499" transform="translate(-609.213 -357.895)"/>
                                    <g id="Group_283" data-name="Group 283" transform="translate(37.43 76.345)">
                                        <path id="Path_500" d="M647.381 436.979q-.373.07-.738.145c.244-.05.489-.099.738-.145z" class="cls-21" data-name="Path 500" transform="translate(-646.643 -436.126)"/>
                                        <path id="Path_501" d="M649.012 436.975h.01z" class="cls-21" data-name="Path 501" transform="translate(-648.274 -436.121)"/>
                                        <path id="Path_502" d="M659.349 434.239c-1.512.019-3.147.1-4.9.2a43.6 43.6 0 0 0-5.4.647 6.111 6.111 0 0 0 1.393 1.781c1.079-.034 2.2-.116 3.36-.257l.1-.012.1-.011a35.388 35.388 0 0 0 4.731-.88 5.627 5.627 0 0 0 .616-1.468z" class="cls-21" data-name="Path 502" transform="translate(-648.297 -434.239)"/>
                                    </g>
                                    <g id="Group_290" data-name="Group 290" transform="translate(21.072 83.168)">
                                        <g id="Group_286" data-name="Group 286" transform="translate(26.78)">
                                            <g id="Group_285" data-name="Group 285" transform="translate(.124)">
                                                <path id="Path_503" d="M682.54 465.846c8.491-6.511 18.115-9.925 19.665-9.687 1.111.17 2.078 1.706 2.078 1.706-13.92 4.99-18.617 10.497-21.743 7.981z" class="cls-26" data-name="Path 503" transform="translate(-681.906 -456.147)"/>
                                                <path id="Path_504" d="M685.536 466.769c3.338-2.062 11.034-5.455 15.3-7.278-4.222 1.294-8.221 3.4-12.419 5.028 2.834-2.415 6.661-3.545 9.915-5.288a62.345 62.345 0 0 0-15.793 8.738c2.445 1.968 5.851-.971 13.877-4.733-1.924-.419-10.88 3.533-10.88 3.533z" class="cls-27" data-name="Path 504" transform="translate(-681.906 -458.27)"/>
                                                <path id="Path_505" d="M680.5 468.751c6.837-2.163 20.968-9.27 23.167-8.9 1.559.263 1.379 35.228.591 35.933s-9.613.486-19.475 6.144c-2.238-3.928-4.283-33.177-4.283-33.177z" class="cls-28" data-name="Path 505" transform="translate(-680.503 -458.688)"/>
                                                <path id="Path_506" d="M742.439 466.74c1.174-.177 1.777.315 1.826.988s-.962 1.086-1.634 1.135-1.865.011-1.914-.661 1.055-1.361 1.722-1.462z" class="cls-29" data-name="Path 506" transform="translate(-721.962 -463.416)"/>
                                                <path id="Path_507" d="M751.436 477.232c.375-.064.571.135.59.4s-.3.426-.517.442-.6-.006-.617-.273.331-.532.544-.569z" class="cls-29" data-name="Path 507" transform="translate(-728.969 -470.657)"/>
                                                <path id="Path_508" d="M700.682 529.723c-3 1.17-7.517 1.649-9.532-1.558-3.119-5.043-4.32-10.542-6.642-15.8a83.194 83.194 0 0 0-1.285 4.684c.779 8.178 1.936 17.954 3.163 20.071 9.661-5.453 18.3-5.253 19.071-5.932.293-.258.506-5.245.575-11.354-.484 4.06-1.419 8.556-5.35 9.889z" class="cls-30" data-name="Path 508" transform="translate(-682.376 -494.855)"/>
                                                <g id="Group_284" data-name="Group 284" transform="translate(13.006 14.918)">
                                                    <path id="Path_509" d="M722.5 508.227c-.082 1.5 3.633 1.082 6.123 1.671 0 0-6.189-.206-6.357 1.435-.172 1.684 4.027 1.677 5.9 1.668 0 0-5.4.642-5.305 2.144.087 1.444 3.112 1.368 5.831 1.112 0 0-5.367.565-4.837 2.2.677 2.088 6.711 1.545 8.963.81.194-.064-.2-7.135-.236-10.861-4.067-3.079-9.982-1.989-10.082-.179z" class="cls-30" data-name="Path 509" transform="translate(-722.263 -505.713)"/>
                                                    <path id="Path_510" d="M736.494 510.03c.816 3.158-.523 6.014-3.309 6.924-2.253.736-8.286 1.279-8.963-.809-.53-1.635 4.837-2.2 4.837-2.2-2.719.255-5.744.331-5.831-1.113-.09-1.5 5.305-2.143 5.305-2.143-1.873.008-6.073.016-5.9-1.669.167-1.641 6.357-1.435 6.357-1.435-2.49-.59-6.205-.172-6.123-1.672.128-2.36 11.577-3.813 13.627 4.117z" class="cls-31" data-name="Path 510" transform="translate(-722.513 -504.045)"/>
                                                    <path id="Path_511" d="M734.1 522.07a17.87 17.87 0 0 0 6.77-.345c3.943-1.437 4.62-6.712.668-10.193 1.74 2.341 1.884 5.865.389 7.826-1.522 1.999-4.732 2.415-7.827 2.712z" class="cls-25" data-name="Path 511" transform="translate(-730.415 -509.2)"/>
                                                    <path id="Path_512" d="M731.1 540.675c.456.022.633.307.587.625s-.464.421-.72.383-.7-.162-.652-.48.529-.541.785-.528z" class="cls-32" data-name="Path 512" transform="translate(-727.807 -529.266)"/>
                                                    <path id="Path_513" d="M725.783 508.2c.456.022.633.307.587.625s-.464.42-.72.383-.7-.162-.652-.481.526-.539.785-.527z" class="cls-32" data-name="Path 513" transform="translate(-724.144 -506.906)"/>
                                                    <path id="Path_514" d="M725.5 518.609c.456.022.634.307.587.625s-.464.421-.72.383-.7-.162-.652-.481.525-.536.785-.527z" class="cls-32" data-name="Path 514" transform="translate(-723.949 -514.073)"/>
                                                    <path id="Path_515" d="M727.272 530.47c.456.022.634.307.587.625s-.464.421-.72.383-.7-.162-.652-.48.526-.541.785-.528z" class="cls-32" data-name="Path 515" transform="translate(-725.169 -522.239)"/>
                                                </g>
                                            </g>
                                            <path id="Path_516" d="M686.311 519.544l-4.228-31.089c-.7.222-1.368.424-1.978.592l4.394 31.341a54.809 54.809 0 0 1 1.812-.844z" class="cls-30" data-name="Path 516" transform="translate(-680.105 -478.392)"/>
                                        </g>
                                        <g id="Group_289" data-name="Group 289" transform="translate(0 5.113)">
                                            <g id="Group_288" data-name="Group 288">
                                                <path id="Path_517" d="M620.559 477.48c-9.79-4.317-19.949-5.358-21.4-4.761-1.039.429-1.615 2.149-1.615 2.149 14.707 1.557 20.573 5.797 23.015 2.612z" class="cls-26" data-name="Path 517" transform="translate(-596.48 -472.565)"/>
                                                <path id="Path_518" d="M624.5 477.379c-3.731-1.214-12.011-2.691-16.589-3.453 4.409.259 8.792 1.362 13.256 1.948-3.324-1.676-7.311-1.869-10.884-2.793a62.359 62.359 0 0 1 17.412 4.755c-1.91 2.491-5.915.441-14.6-1.316 1.772-.864 11.405.859 11.405.859z" class="cls-27" data-name="Path 518" transform="translate(-603.619 -472.92)"/>
                                                <path id="Path_519" d="M618.9 481.693c-7.155-.485-22.566-4.047-24.614-3.167-1.453.624 6.992 34.555 7.925 35.053s9.455-1.8 20.375 1.364c1.253-4.343-3.686-33.25-3.686-33.25z" class="cls-28" data-name="Path 519" transform="translate(-594.122 -476.573)"/>
                                                <path id="Path_520" d="M600.1 493.105c.375-.064.571.135.591.4s-.3.426-.517.442-.6-.006-.617-.273.325-.532.543-.569z" class="cls-29" data-name="Path 520" transform="translate(-597.86 -486.7)"/>
                                                <path id="Path_521" d="M601.184 482.486c1.183.1 1.652.727 1.541 1.391s-1.192.828-1.856.717-1.815-.43-1.7-1.1 1.342-1.067 2.015-1.008z" class="cls-29" data-name="Path 521" transform="translate(-597.589 -479.392)"/>
                                                <path id="Path_522" d="M618.755 534.543c3.195.426 7.694-.175 8.892-3.768 1.837-5.638 1.7-11.264 2.716-16.924a82.635 82.635 0 0 1 2.357 4.247c1.177 8.13 2.366 17.9 1.674 20.249-10.676-3.014-19.022-.776-19.934-1.253-.345-.181-1.732-4.977-3.244-10.9 1.431 3.837 3.404 7.984 7.539 8.349z" class="cls-30" data-name="Path 522" transform="translate(-605.892 -500.992)"/>
                                                <g id="Group_287" data-name="Group 287" transform="translate(1.091 13.838)">
                                                    <path id="Path_523" d="M616.306 519.9c.438 1.439-3.277 1.921-5.56 3.089 0 0 5.974-1.679 6.529-.122.57 1.6-3.519 2.594-5.344 3.034 0 0 5.4-.665 5.675.819.26 1.426-2.7 2.075-5.409 2.476 0 0 5.358-.733 5.233.985-.16 2.194-6.162 3.107-8.53 2.929-.2-.016-1.51-6.992-2.365-10.626 3.225-3.971 9.242-4.323 9.771-2.584z" class="cls-30" data-name="Path 523" transform="translate(-603.76 -518.31)"/>
                                                    <path id="Path_524" d="M597.627 525.244c-.04 3.269 1.945 5.728 4.875 5.948 2.368.178 8.37-.735 8.53-2.929.125-1.718-5.232-.985-5.232-.985 2.708-.4 5.669-1.05 5.409-2.475-.271-1.484-5.675-.819-5.675-.819 1.825-.439 5.913-1.435 5.344-3.033-.555-1.557-6.529.122-6.529.122 2.283-1.169 6-1.65 5.56-3.09-.692-2.268-12.182-.949-12.282 7.261z" class="cls-31" data-name="Path 524" transform="translate(-597.626 -516.994)"/>
                                                    <path id="Path_525" d="M610.255 538.356a17.913 17.913 0 0 1-6.671 1.282c-4.181-.457-6.1-5.428-3.085-9.76-1.134 2.694-.432 6.158 1.492 7.709 1.96 1.581 5.184 1.219 8.264.769z" class="cls-25" data-name="Path 525" transform="translate(-598.592 -525.865)"/>
                                                    <path id="Path_526" d="M634.14 552.183a.535.535 0 0 0-.422.748c.121.3.552.3.792.2s.641-.325.52-.623-.641-.399-.89-.325z" class="cls-32" data-name="Path 526" transform="translate(-622.445 -541.207)"/>
                                                    <path id="Path_527" d="M631.559 519.308a.536.536 0 0 0-.422.748c.121.3.552.3.792.2s.641-.324.52-.623-.641-.399-.89-.325z" class="cls-32" data-name="Path 527" transform="translate(-620.667 -518.571)"/>
                                                    <path id="Path_528" d="M634.321 529.37a.536.536 0 0 0-.422.748c.121.3.552.3.792.2s.641-.325.519-.623-.64-.395-.889-.325z" class="cls-32" data-name="Path 528" transform="translate(-622.569 -525.499)"/>
                                                    <path id="Path_529" d="M635.43 541.336a.536.536 0 0 0-.422.748c.121.3.552.3.792.2s.641-.325.52-.623-.641-.399-.89-.325z" class="cls-32" data-name="Path 529" transform="translate(-623.333 -533.738)"/>
                                                </g>
                                            </g>
                                            <path id="Path_530" d="M671.151 521.616l-3.245-31.207c.735.05 1.43.088 2.062.108l3.143 31.491a51.06 51.06 0 0 0-1.96-.392z" class="cls-30" data-name="Path 530" transform="translate(-644.926 -484.851)"/>
                                        </g>
                                        <path id="Path_531" d="M678.214 519.724s-1.341 1.41-1.841 1.489a7.158 7.158 0 0 1-2.22-.851l-4.177-33.207a19.674 19.674 0 0 0 2.172.04 16.517 16.517 0 0 0 1.906-.555z" class="cls-33" data-name="Path 531" transform="translate(-646.35 -477.142)"/>
                                    </g>
                                    <path id="Path_532" d="M626.512 302.743c-2.077-5.9-.111-10.824-2.462-15.417-5.176-5.911-14.653-8.391-23.231-8.018l-.1.008h-.1c-8.742.667-18.416 4.433-23.225 11.337-1.942 5.2-1.666 10.478-.473 16.577-1.6 7.277 5.048 24.6 27.067 21.933l.1-.012.1-.011c20.912-2.472 24.612-19.912 22.324-26.397z" class="cls-31" data-name="Path 532" transform="translate(-560.558 -251.192)"/>
                                    <path id="Path_533" d="M612.17 358.173s-13.663 4.959-22.621 1.406c-11.473-4.55-14.369-20.77-12.217-28.383.023 0 2.15-1.043 1.7-2.1a7.626 7.626 0 0 0-1.179.27 42.437 42.437 0 0 1-4.634.516c-3.073.571-4.035 3.412-4.286 6.415a16.463 16.463 0 0 0 3.183 5.569c2.151 12.5 8.645 18.87 18.936 20.663 6.002 1.05 15.271-.136 21.118-4.356z" class="cls-25" data-name="Path 533" transform="translate(-555.708 -285.501)"/>
                                    <g id="Group_292" data-name="Group 292" transform="translate(24.259 46.65)">
                                        <ellipse id="Ellipse_65" cx="5.881" cy="6.39" class="cls-25" data-name="Ellipse 65" rx="5.881" ry="6.39" transform="rotate(-11.136 30.302 -2.788)"/>
                                        <path id="Path_534" d="M616.572 349.667s-.295 1.778.627 2.077c.164-.107.808-.572.808-.572-.816.128-1.435-1.505-1.435-1.505z" class="cls-34" data-name="Path 534" transform="translate(-612.736 -346.313)"/>
                                        <g id="Group_291" data-name="Group 291">
                                            <path id="Path_535" d="M613.519 341.247c-.3-1.772-7.006-.05-9.166 4.482 4.939-4.11 9.469-2.71 9.166-4.482z" class="cls-25" data-name="Path 535" transform="translate(-604.353 -340.043)"/>
                                            <path id="Path_536" d="M614.764 339.657c-.3-1.772-6.657-.462-8.817 4.07 4.938-4.11 9.12-2.297 8.817-4.07z" class="cls-34" data-name="Path 536" transform="translate(-605.451 -338.897)"/>
                                        </g>
                                        <path id="Path_537" d="M612.564 353.4s.609 1.872 1.593 1.52c.113-.163.538-.842.538-.842-.795.778-2.131-.678-2.131-.678z" class="cls-34" data-name="Path 537" transform="translate(-610.007 -348.88)"/>
                                        <path id="Path_538" d="M610.19 357.344s1.455 1.281 2.106.508c.013-.192.029-.969.029-.969-.277 1.042-2.135.461-2.135.461z" class="cls-34" data-name="Path 538" transform="translate(-608.372 -351.28)"/>
                                        <path id="Path_539" d="M609.383 359.777s1.777.724 2.136-.231c-.05-.187-.287-.931-.287-.931.08 1.085-1.849 1.162-1.849 1.162z" class="cls-34" data-name="Path 539" transform="translate(-607.816 -352.473)"/>
                                        <path id="Path_540" d="M615.988 351.552c3.087-.539 6.113 1.752 6.87 5.147-3.844-.31-7.51 1.712-11.449 1.957-.499-3.422 1.504-6.568 4.579-7.104z" class="cls-34" data-name="Path 540" transform="translate(-609.159 -347.556)"/>
                                        <ellipse id="Ellipse_66" cx="5.881" cy="5.796" class="cls-26" data-name="Ellipse 66" rx="5.881" ry="5.796" transform="rotate(-11.19 33.363 -3.058)"/>
                                        <ellipse id="Ellipse_67" cx="4.172" cy="4.365" class="cls-35" data-name="Ellipse 67" rx="4.172" ry="4.365" transform="rotate(-11.136 43.771 -12.58)"/>
                                        <path id="Path_541" d="M626.029 373.921a2.785 2.785 0 1 1 2.072-3.243 2.723 2.723 0 0 1-2.072 3.243z" data-name="Path 541" transform="translate(-617.074 -359.22)"/>
                                        <path id="Path_542" d="M631.635 368.534a1.422 1.422 0 1 1 1.141-1.674 1.433 1.433 0 0 1-1.141 1.674z" class="cls-26" data-name="Path 542" transform="translate(-621.956 -357.363)"/>
                                    </g>
                                    <g id="Group_293" data-name="Group 293" transform="translate(45.438 45.164)">
                                        <path id="Path_543" d="M682.66 352.627a6.412 6.412 0 1 1 4.536-7.405 6.151 6.151 0 0 1-4.536 7.405z" class="cls-25" data-name="Path 543" transform="translate(-674.536 -338.16)"/>
                                        <path id="Path_544" d="M697.012 334.125s.922 1.548.173 2.163c-.192-.04-.961-.238-.961-.238.807-.178.788-1.925.788-1.925z" class="cls-34" data-name="Path 544" transform="translate(-688.789 -334.125)"/>
                                        <path id="Path_545" d="M700.1 336.1s.115 1.965-.929 2c-.164-.11-.808-.587-.808-.587 1.023.433 1.737-1.413 1.737-1.413z" class="cls-34" data-name="Path 545" transform="translate(-690.26 -335.485)"/>
                                        <path id="Path_546" d="M703.193 339.861s-.888 1.723-1.776 1.24c-.082-.173-.38-.892-.38-.892.638.871 2.156-.348 2.156-.348z" class="cls-34" data-name="Path 546" transform="translate(-692.103 -338.074)"/>
                                        <path id="Path_547" d="M705.418 342.373s-1.391 1.322-2.073.563a40.974 40.974 0 0 1-.073-.972c.322 1.036 2.146.409 2.146.409z" class="cls-34" data-name="Path 547" transform="translate(-693.642 -339.522)"/>
                                        <path id="Path_548" d="M680.371 339.313c-3.072.624-5.054 3.86-4.521 7.3 3.467-1.69 7.618-1.144 11.374-2.352-.781-3.371-3.793-5.57-6.853-4.948z" class="cls-34" data-name="Path 548" transform="translate(-674.701 -337.624)"/>
                                        <ellipse id="Ellipse_68" cx="5.881" cy="5.796" class="cls-26" data-name="Ellipse 68" rx="5.881" ry="5.796" transform="rotate(-11.136 18.7 1.823)"/>
                                        <ellipse id="Ellipse_69" cx="4.172" cy="4.365" class="cls-35" data-name="Ellipse 69" rx="4.172" ry="4.365" transform="rotate(-11.136 29.126 -7.671)"/>
                                        <ellipse id="Ellipse_70" cx="2.659" cy="2.782" data-name="Ellipse 70" rx="2.659" ry="2.782" transform="rotate(-11.137 38.02 -17.25)"/>
                                        <path id="Path_549" d="M695.705 354.979a1.422 1.422 0 1 1 1.141-1.674 1.433 1.433 0 0 1-1.141 1.674z" class="cls-26" data-name="Path 549" transform="translate(-687.25 -346.543)"/>
                                    </g>
                                    <g id="Group_294" data-name="Group 294" transform="translate(46.34 42.946)">
                                        <path id="Path_550" d="M676.414 330.552c-.61-1.691 6.071-3.5 10.185-.619-6.324-1.142-9.575 2.31-10.185.619z" class="cls-25" data-name="Path 550" transform="translate(-676.025 -327.977)"/>
                                        <path id="Path_551" d="M675.293 329.265c-.61-1.691 5.564-3.684 9.678-.805-6.323-1.142-9.071 2.496-9.678.805z" class="cls-34" data-name="Path 551" transform="translate(-675.251 -327.003)"/>
                                    </g>
                                    <path id="Path_552" d="M565.657 205.87a21.43 21.43 0 0 0-17.357-16.459c-8.9-1.512-18.388 2.728-21.835 13.9 4.543-6.276 11.857-4.327 11.857-4.327a16.946 16.946 0 0 0-4.881 11.113c5.21-5.9 9.448-5.058 11.785-4.254 2.393.823 4.446 4.588 8.281 3.438 5.586-1.904 12.15-3.411 12.15-3.411z" class="cls-36" data-name="Path 552" transform="translate(-526.465 -189.116)"/>
                                    <path id="Path_553" d="M569.076 197.074c2.948-1.923 8.721-2.1 13.47 1.229-3.95-1.667-5.824-1.178-5.824-1.178s4.828 1.208 7.153 4.18a20.479 20.479 0 0 0-7.536-2s4.1 1.369 5.493 3.908a19.27 19.27 0 0 0-10.526-2.162 6.753 6.753 0 0 1 3.271-.9 12.377 12.377 0 0 0-6.462-.942c1.5-1.53 5.281-1.552 7.684-1.136a15.251 15.251 0 0 0-6.723-.999z" class="cls-37" data-name="Path 553" transform="translate(-555.144 -193.65)"/>
                                    <path id="Path_554" d="M604.862 243.043c.1 5.074 4.635 9.011 10.193 8.786 5.631-.229 10.155-4.635 10.035-9.831s-4.822-9.1-10.434-8.746c-5.54.348-9.895 4.726-9.794 9.791z" class="cls-38" data-name="Path 554" transform="translate(-580.444 -219.49)"/>
                                    <path id="Path_555" d="M589.427 242.089H589.398c-30.651 4.7-20.623 45.689-17.183 44.46.772-.276-1.49-7.558 1.068-12.226 2.541-.55 9.5-2.452 10.439-2.694 1.472-.381 1.428-2.361 1.428-2.361l1.789 1.443s4.7-.983 5.148-1.276.77-2.476.77-2.476.532 1.87.8 1.975a95.108 95.108 0 0 0 9.815-1.986c.345-.269.139-6.722.139-6.722s1.676 5.924 2.1 6.1a25.005 25.005 0 0 0 5.052-.738 6.288 6.288 0 0 0 .978-1.549 5.209 5.209 0 0 0 .836 1.212 7.96 7.96 0 0 0 2.2-.031 23.885 23.885 0 0 1 5.758 10.006c6.093-6.932-2.555-37.473-31.108-33.137z" class="cls-37" data-name="Path 555" transform="translate(-554.977 -225.301)"/>
                                    <path id="Path_556" d="M606.235 260.986c3.49-5.031 12.1-8.319 20.9-5.146-7.358-.17-9.282 1.187-9.282 1.187s8.128-.765 12.945 3.886c-7.961-1.323-12.652 1.266-12.652 1.266s6.91.479 11.7 4.56a37.939 37.939 0 0 0-20.663 2.448s3.005-3.314 5.6-4.309c.2-.224-4.848-1.412-10.045-.418 4.06-3.8 12.1-4.69 12.1-4.69a13.206 13.206 0 0 0-10.603 1.216z" class="cls-39" data-name="Path 556" transform="translate(-580.355 -234.198)"/>
                                    <g id="Group_295" data-name="Group 295" transform="translate(63.944 41.903)">
                                        <path id="Path_557" d="M731.975 333.619c-.934-3.881 1.394-10.969 6.271-9.846 6.885 1.586 3.716 15.807-4.51 13.567a25.718 25.718 0 0 1-1.761-3.721z" class="cls-31" data-name="Path 557" transform="translate(-731.772 -323.654)"/>
                                        <path id="Path_558" d="M741.9 333.109c1.955 1.128.97 5.561-1.193 7.057-1.781 1.232-4.293.712-4.2-2.335.098-3.607 3.437-5.85 5.393-4.722z" class="cls-25" data-name="Path 558" transform="translate(-735.027 -329.962)"/>
                                    </g>
                                    <g id="Group_296" data-name="Group 296" transform="translate(61.288 40.433)">
                                        <path id="Path_559" d="M723.245 319.465c6.021 9.951 3.231 21.909 3.841 21.777s3.084-8.8 1.674-19.747c-2.224-4.123-5.515-2.03-5.515-2.03z" class="cls-37" data-name="Path 559" transform="translate(-723.245 -318.934)"/>
                                    </g>
                                    <g id="Group_298" data-name="Group 298" transform="translate(38.799 50.018)">
                                        <path id="Path_560" d="M660.979 360.11c-.232-1.076-2.485-2.276-3.683-4.225-1.765-2.872-2.772-6.452-4.159-6.157-1.365.291-.477 3.605-.7 7.042-.154 2.423-1.67 5.037-1.362 6.132.406 1.442 1.688 2.027 3.346 1.752a2.648 2.648 0 0 0 2.579.646 2.863 2.863 0 0 0 1.925-1.931c1.546-.637 2.367-1.809 2.054-3.259z" class="cls-40" data-name="Path 560" transform="translate(-651.039 -349.711)"/>
                                        <g id="Group_297" data-name="Group 297" transform="translate(.383 .684)">
                                            <path id="Path_561" d="M676.732 380.961a1.137 1.137 0 1 1-.973-1.005 1 1 0 0 1 .973 1.005z" class="cls-41" data-name="Path 561" transform="translate(-667.604 -371.211)"/>
                                            <path id="Path_562" d="M677.511 380.9c-.023.163-.31.257-.642.211s-.582-.216-.559-.379.31-.257.642-.211.582.213.559.379z" class="cls-42" data-name="Path 562" transform="translate(-668.821 -371.599)"/>
                                            <path id="Path_563" d="M654.065 387.169a1.138 1.138 0 1 1-1.392.136 1.005 1.005 0 0 1 1.392-.136z" class="cls-41" data-name="Path 563" transform="translate(-652.27 -376.033)"/>
                                            <path id="Path_564" d="M653.777 387.8c.121.112.033.4-.195.647s-.511.354-.632.241-.033-.4.2-.647.506-.353.627-.241z" class="cls-42" data-name="Path 564" transform="translate(-652.701 -376.591)"/>
                                            <path id="Path_565" d="M659.676 356.687c.686 2.775.784 5.138.22 5.277s-1.577-2-2.263-4.772-.784-5.138-.22-5.278 1.578 1.997 2.263 4.773z" class="cls-41" data-name="Path 565" transform="translate(-655.559 -351.907)"/>
                                            <path id="Path_566" d="M662.007 364.9c.487 1.973.033 3.782-1.015 4.041s-2.293-1.13-2.78-3.1c-.321-1.3-.18-3.238-1.053-8.969.127-1.217 1.2-.367 1.559-.455 1.6 4.812 2.802 6.51 3.289 8.483z" class="cls-41" data-name="Path 566" transform="translate(-655.636 -354.867)"/>
                                            <path id="Path_567" d="M662.831 368.77c.6 2.578.785 4.74.4 4.83s-1.181-1.928-1.786-4.506-.785-4.74-.4-4.83 1.182 1.929 1.786 4.506z" class="cls-42" data-name="Path 567" transform="translate(-658.174 -360.414)"/>
                                        </g>
                                    </g>
                                    <path id="Path_568" d="M663.121 402.931s-1.274 5.235-6.312 6.311c-5.1 1.089-8.144-3.313-8.144-3.313z" class="cls-43" data-name="Path 568" transform="translate(-610.604 -336.337)"/>
                                </g>
                            </g>
                        </g>
                        <g id="Group_317" data-name="Group 317" transform="translate(16.81 16.331)">
                            <g id="Group_316" data-name="Group 316">
                                <path id="Path_569" d="M462.747 502.481c5.666-3.643 19.022-11.332 22.664-8.094s1.619 36.425 1.619 36.425l-25.5 1.619s-5.663-22.26 1.217-29.95z" class="cls-14" data-name="Path 569" transform="translate(-432.907 -415.104)"/>
                                <path id="Path_570" d="M464.26 530.967c-2.689-3.558-4.1-22.633 3.434-21.226a19.513 19.513 0 0 0 4.823-5.461 101.6 101.6 0 0 0-9.77 5.549c-4.829 5.4-3.477 17.972-2.242 24.99 1.372-.882 3.604-2.497 3.755-3.852z" class="cls-44" data-name="Path 570" transform="translate(-432.907 -422.451)"/>
                                <g id="Group_302" data-name="Group 302" transform="translate(7.58 87.479)">
                                    <path id="Path_571" d="M398.811 554.292c8.094 9.309 31.973 11.737 34-6.071-11.737.4-14.975-11.737-11.636-25.8-7.389 1.112-21.959 17.301-22.364 31.871z" class="cls-45" data-name="Path 571" transform="translate(-398.811 -522.42)"/>
                                </g>
                                <path id="Path_572" d="M407.238 567.795c-2.9-9.847 3.807-19.943 3.807-19.943a58.343 58.343 0 0 0-11.585 21.515c4.191 5.675 14.265 9.382 22.246 7.551-.006 0-11.943-.537-14.468-9.123z" class="cls-46" data-name="Path 572" transform="translate(-391.677 -452.452)"/>
                                <g id="Group_303" data-name="Group 303" transform="translate(0 59.249)">
                                    <path id="Path_573" d="M390.755 431.783c-13.147 1.2-20.387 40.279-13.82 54.894a4.555 4.555 0 0 0 5.119 5.207c.4-2.833 7.285-24.688 25.093-33.187-7.286-1.214-31.569-14.57-16.392-26.914z" class="cls-38" data-name="Path 573" transform="translate(-374.473 -431.783)"/>
                                    <path id="Path_574" d="M426.686 475.648l-.086-.018-.176-.038-.107-.025-.168-.041-.117-.03-.171-.045-.123-.034-.177-.05-.126-.037-.186-.057-.127-.04-.2-.065-.121-.04-.231-.079-.1-.035-.329-.119h-.011c-.118-.043-.237-.089-.359-.135l-.056-.022-.3-.119-.1-.041-.268-.109-.115-.048-.262-.111-.12-.052-.267-.117-.117-.052-.279-.126-.109-.05-.3-.142-.088-.041-.356-.172-.04-.019a40.419 40.419 0 0 1-1.678-.87l-.03-.016q-.2-.107-.391-.217l-.047-.026-.379-.217-.049-.028-.388-.228-.034-.02q-.209-.124-.419-.253c-5.63-3.443-11.188-8.685-10.807-14.329-1.032 1.272-.7 3.246-.233 5.147v-.124.124c.182.74.384 1.469.535 2.142.325 1.448.607 2.786.849 4.03 1.23 2.8 2.557 5.531 2.865 8.655.717 7.282-2.292 16.957-2.408 17.389a56.383 56.383 0 0 1 6.046-8.939q.619-.737 1.276-1.458l.026-.029q.3-.326.605-.649l.11-.115q.272-.285.552-.565l.127-.129q.294-.293.594-.582l.083-.08q.694-.663 1.427-1.3l.13-.112q.29-.25.586-.495l.208-.17q.267-.217.539-.431l.225-.176q.284-.219.573-.433l.193-.145q.771-.565 1.579-1.094l.234-.15c.191-.123.382-.244.577-.363.1-.06.2-.119.294-.178q.271-.163.546-.321l.306-.175c.193-.109.389-.215.585-.32l.273-.147c.287-.151.577-.3.871-.442l-.259-.052z" class="cls-47" data-name="Path 574" transform="translate(-396.238 -449.372)"/>
                                </g>
                                <g id="Group_304" data-name="Group 304" transform="translate(45.588 78.114)">
                                    <path id="Path_575" d="M532.934 492.408c1.821.3 3.842 3.01 4.756 5.436 2.468 6.555 3.171 19.368 2.58 30.887 2.833 3.238.4 6.071-6.475 6.476s-6.476-1.619-6.476-1.619c2.024-27.521-6.475-39.663-6.475-39.663 2.427-2.025 12.09-1.517 12.09-1.517z" class="cls-14" data-name="Path 575" transform="translate(-520.843 -492.352)"/>
                                    <path id="Path_576" d="M541.24 493.088c2.9 1.741 6.186.557 8.735 2.134-.985-1.451-2.226-2.62-3.386-2.814a57.706 57.706 0 0 0-5.914.043c.183.175.334.405.565.637z" class="cls-44" data-name="Path 576" transform="translate(-534.498 -492.352)"/>
                                    <path id="Path_577" d="M541.8 577.234a106.72 106.72 0 0 1-.18 13.305s-.4 2.024 6.476 1.619 9.308-3.238 6.475-6.476c.179-3.491.239-7.1.168-10.618-2.997 2.119-10.282 2.524-12.939 2.17z" class="cls-48" data-name="Path 577" transform="translate(-535.149 -549.303)"/>
                                    <path id="Path_578" d="M566.031 515.54c.169.9.279 2.075-.379 2.238s-1.094-.882-1.263-1.787-.012-1.859.431-1.942 1.042.586 1.211 1.491z" class="cls-49" data-name="Path 578" transform="translate(-550.781 -507.287)"/>
                                    <path id="Path_579" d="M559.864 607.907c4.583.232 10.657 7.675 10.526 11.315s-13.118 4.386-21.178 3.285c-3.06-4.97-.444-10.14-.444-10.14a12.835 12.835 0 0 0 6.876.248c.823-.376-.227-4.933 4.22-4.708z" class="cls-50" data-name="Path 579" transform="translate(-539.353 -571.911)"/>
                                    <path id="Path_580" d="M585.239 610.937c.624.248 1.214 1.087 1.01 1.6s-1.059.621-1.682.373-1.09-.869-.886-1.383a1.235 1.235 0 0 1 1.558-.59z" class="cls-51" data-name="Path 580" transform="translate(-564.076 -573.944)"/>
                                    <path id="Path_581" d="M573.84 632.572c-.733 1.655-.1 2.831-.521 3.221-.3.276-10.575 1.238-12.972.342l-.079 2.2c8 .67 18.638-.254 18.757-3.548a8.485 8.485 0 0 0-1.518-4.283 4.424 4.424 0 0 0-3.667 2.068z" class="cls-48" data-name="Path 581" transform="translate(-547.988 -587.474)"/>
                                </g>
                                <g id="Group_305" data-name="Group 305" transform="translate(35.699 79.597)">
                                    <path id="Path_582" d="M504.638 497.182c5.341 9.8 4.539 38.526 4.539 38.526-.084 5.26-5.686 6.481-8 5.944-8.238-.536-8.913-5.278-8.913-5.278a48.049 48.049 0 0 1-1.544-12.425 88.828 88.828 0 0 1 .511-9.818c.717-5.3 1.874-11.9 5.02-15.033 2.549-2.542 8.387-1.916 8.387-1.916z" class="cls-52" data-name="Path 582" transform="translate(-490.214 -497.113)"/>
                                    <path id="Path_583" d="M531.921 520.551c.143 1.1.134 2.532-1.076 2.737s-1.807-1.066-1.95-2.17.308-2.27 1.118-2.375a1.963 1.963 0 0 1 1.908 1.808z" class="cls-53" data-name="Path 583" transform="translate(-516.481 -512)"/>
                                    <path id="Path_584" d="M497.156 548.45c-.6-7.9-1.507-17.337-1.507-17.337-1.406 3.683-1.857 13.221-1.767 17.543 0 0 3.287-.156 3.274-.206z" class="cls-25" data-name="Path 584" transform="translate(-492.383 -520.524)"/>
                                    <path id="Path_585" d="M509.074 582.331c-5.82 2.3-14.821 1.615-18.35.4a47.982 47.982 0 0 0 1.544 12.323s.674 4.742 8.913 5.278c2.312.537 7.914-.683 8-5.944-.003-.004.144-5.268-.107-12.057z" class="cls-54" data-name="Path 585" transform="translate(-490.216 -555.789)"/>
                                    <path id="Path_586" d="M511.125 597.06c-2 .924-9.971.317-11.811-1.669-1.823-1.967-1.93-6.681-2.181-10.289a25.56 25.56 0 0 1-3.26-.577 50.417 50.417 0 0 0 1.459 12.035s.638 4.742 8.434 5.278a4.821 4.821 0 0 0 1.192.1c2.267-.148 5.324-1.369 6.165-4.439.007-.142.009-.288.002-.439z" class="cls-27" data-name="Path 586" transform="translate(-492.385 -557.301)"/>
                                    <path id="Path_587" d="M508.96 617.152c4.458-.334 10.81 7.458 10.752 11.1s-24.782 5.676-29.573 1.552c-2.828-2.434.984-10.913.984-10.913 3.59 3.3 12.9 3.444 13.714 3.052s-.317-4.459 4.123-4.791z" class="cls-38" data-name="Path 587" transform="translate(-489.094 -579.758)"/>
                                    <path id="Path_588" d="M553.031 620.66c.875.348 1.755 1.4 1.519 1.989s-1.4.648-2.272.3-1.567-1.126-1.331-1.72a1.629 1.629 0 0 1 2.084-.569z" class="cls-55" data-name="Path 588" transform="translate(-531.65 -582.082)"/>
                                    <path id="Path_589" d="M500.846 632.76c-2.318-.448-2.226-3.18-1.9-6.082a13.864 13.864 0 0 1-3.88-1.581c-.8 2.106-2.855 8.185-.645 10.185 1.74 1.575 6.247 2.252 11.155 2.284a57.434 57.434 0 0 0 13.047-1.45c-.18-1.089 1.021-3.553.954-4.679-4.671 1.488-14.13 2.214-18.731 1.323z" class="cls-47" data-name="Path 589" transform="translate(-492.076 -585.236)"/>
                                    <path id="Path_590" d="M518.285 639.116a2.956 2.956 0 0 0-4.193 1.511c-.629 1.7-.443 2.422-.854 2.82-.276.267-19.084 3.743-24.133-1.6q0 .219.021.43v.009c.011.135.026.268.045.4v.025c.019.122.042.241.069.358 0 .015.006.03.009.045.026.108.057.212.09.315l.019.063c.033.095.071.185.11.274.011.025.02.052.032.077.039.082.084.159.13.236.016.027.03.057.047.083.048.074.1.143.156.211.02.024.036.052.057.075a2.335 2.335 0 0 0 .25.251c4.792 4.124 29.515 2.09 29.573-1.552a8.429 8.429 0 0 0-1.434-4.029z" class="cls-54" data-name="Path 590" transform="translate(-489.102 -594.651)"/>
                                </g>
                                <g id="Group_310" data-name="Group 310" transform="translate(9.746 59.029)">
                                    <path id="Path_591" d="M452.465 508.467c-.236 1.315-1.99 2.765-3.2 2.125-1.522-1.653-.577-4.082 3.2-2.125z" class="cls-56" data-name="Path 591" transform="translate(-435.238 -483.862)"/>
                                    <g id="Group_307" data-name="Group 307" transform="translate(11.258 1.679)">
                                        <g id="Group_306" data-name="Group 306">
                                            <path id="Path_592" d="M541.955 436.6c7.753-.678 9.581 5.9 7.94 10.7-1.682 4.912-7.753 9.985-19.71 7.367a55.506 55.506 0 0 0 11.77-18.067z" class="cls-14" data-name="Path 592" transform="translate(-502.691 -436.525)"/>
                                            <path id="Path_593" d="M585.136 453.566c-.081.917-.31 2.072-1.109 2.041s-.98-1.159-.9-2.076.549-1.788 1.079-1.741 1.011.859.93 1.776z" class="cls-49" data-name="Path 593" transform="translate(-539.133 -447.015)"/>
                                            <path id="Path_594" d="M483.7 436.592c.072 5.835-9.632 23.249-19.056 25.766s-20.862-1.874-22.73-3.49c.187-5.428.872-13.959 7.037-17.255 6.161-2.035 28.836-5.898 34.749-5.021z" class="cls-52" data-name="Path 594" transform="translate(-441.91 -436.464)"/>
                                            <path id="Path_595" d="M550.764 458.971c-.5.776-1.232 1.694-1.926 1.3s-.333-1.48.162-2.256 1.313-1.332 1.761-1.045.499 1.23.003 2.001z" class="cls-53" data-name="Path 595" transform="translate(-515.268 -450.529)"/>
                                            <path id="Path_596" d="M473.543 439.982c4.4 1.316 3.955 5.113 3.035 9.174-.744 3.283-4.456 11.03-7.462 10.327-2.354-.55.673-7.762.673-7.762-1.66 3.5-3.8 7.148-5.384 6.551-1.984-.748 1.256-8.031 1.256-8.031-1.346 2.288-3.814 6.909-6.281 5.967-2.174-.83 2.871-8.794 2.871-8.794-2.513 2.6-4.7 7.433-6.446 6.237-2.751-1.886 6.695-16.975 17.738-13.669z" class="cls-25" data-name="Path 596" transform="translate(-451.146 -438.561)"/>
                                            <path id="Path_597" d="M471.112 488.818c-5.866 1.27-12.617-.709-18.095-3.255 0 0-.248 2.441-.331 4.262 4.345 1.821 12.452 3.388 19.2 1.586 4.567-1.22 9.039-5.838 12.43-10.949-.002 0-5.816 6.756-13.204 8.356z" class="cls-25" data-name="Path 597" transform="translate(-449.33 -466.759)"/>
                                        </g>
                                        <path id="Path_598" d="M463.6 441.642c-.14.075-.273.155-.408.235a42.351 42.351 0 0 0 15.733.893c7.486-.823 12.739-3.212 16.318-6.264-8.451.216-26.282 3.366-31.643 5.136z" class="cls-25" data-name="Path 598" transform="translate(-456.565 -436.492)"/>
                                    </g>
                                    <g id="Group_308" data-name="Group 308">
                                        <path id="Path_599" d="M405.825 439.288s-.451 4.653 1.115 7.866c2.222 4.557 6.968 8.3 12.848 10.65-1.214-4.047-.2-15.986 7.993-20.742 0 0-8.4-6.374-15.278-5.969a8.353 8.353 0 0 0-5.523 2.917z" class="cls-38" data-name="Path 599" transform="translate(-405.764 -431.075)"/>
                                        <path id="Path_600" d="M426.069 431.093c-.2.012-.4.036-.6.066a24.556 24.556 0 0 0 13.727 7.448 13.871 13.871 0 0 1 2.153-1.544s-8.4-6.375-15.28-5.97z" class="cls-21" data-name="Path 600" transform="translate(-419.331 -431.075)"/>
                                        <path id="Path_601" d="M420.5 458.4c-5.9-1.923-11.75-6.118-10.751-15.347l-.891 4.071s-.437 4.5 1.079 7.613c1.853 3.8 5.482 6.738 10.1 9.011a39.839 39.839 0 0 1 .463-5.348z" class="cls-47" data-name="Path 601" transform="translate(-407.851 -439.326)"/>
                                        <path id="Path_602" d="M421.727 438.007c2 2.107 7.086 4.715 8.925 4.967 1.528.557.59 3.271-1.955 2.854-2.675-.439-7.988-4.19-8.987-6.2s1.071-2.62 2.017-1.621z" class="cls-55" data-name="Path 602" transform="translate(-415.183 -435.524)"/>
                                    </g>
                                    <g id="Group_309" data-name="Group 309" transform="translate(14.691 2.11)">
                                        <path id="Path_603" d="M471.152 438.321c4.4 1.316 3.955 5.113 3.035 9.174-.744 3.282-4.456 11.03-7.463 10.327-2.354-.55.673-7.762.673-7.762-1.66 3.5-3.8 7.149-5.384 6.551-1.984-.748 1.256-8.031 1.256-8.031-1.346 2.288-3.814 6.91-6.281 5.967-2.174-.83 2.872-8.794 2.872-8.794-2.513 2.6-4.7 7.433-6.446 6.236-2.751-1.889 6.695-16.973 17.738-13.668z" class="cls-57" data-name="Path 603" transform="translate(-452.932 -437.849)"/>
                                        <path id="Path_604" d="M498.184 492.25c-.189.508-.534 1.114-1.207.889s-.678-.923-.489-1.43.7-.888 1.142-.724a1.022 1.022 0 0 1 .554 1.265z" class="cls-32" data-name="Path 604" transform="translate(-482.849 -474.409)"/>
                                        <path id="Path_605" d="M482.717 489.486c-.19.51-.537 1.12-1.214.893s-.682-.928-.492-1.438.7-.893 1.149-.728a1.028 1.028 0 0 1 .557 1.273z" class="cls-32" data-name="Path 605" transform="translate(-472.192 -472.5)"/>
                                        <path id="Path_606" d="M467.9 483.5c-.2.542-.57 1.189-1.288.948s-.724-.985-.522-1.527.747-.948 1.219-.772a1.091 1.091 0 0 1 .591 1.351z" class="cls-32" data-name="Path 606" transform="translate(-461.913 -468.323)"/>
                                        <path id="Path_607" d="M456.078 475.794c-.18.483-.508 1.06-1.148.845s-.645-.878-.465-1.36.666-.845 1.086-.688a.972.972 0 0 1 .527 1.203z" class="cls-32" data-name="Path 607" transform="translate(-453.918 -463.122)"/>
                                        <path id="Path_608" d="M480.66 438.321c-5.456-1.633-10.521 1.224-13.918 4.76a43.526 43.526 0 0 0 14.628.614q1.526-.168 2.929-.42a4.63 4.63 0 0 0-3.639-4.954z" class="cls-25" data-name="Path 608" transform="translate(-462.441 -437.849)"/>
                                    </g>
                                </g>
                                <g id="Group_315" data-name="Group 315" transform="translate(1.674)">
                                    <path id="Path_609" d="M460.145 302.847c2.231 4.876-.262 9.755 1.577 15.973 2.039 6.895-1.174 21.962-22.51 24.307s-32.484-7.926-33.631-23.49c-1.969-26.728 40.049-34.702 54.564-16.79z" class="cls-52" data-name="Path 609" transform="translate(-397.52 -277.136)"/>
                                    <g id="Group_311" data-name="Group 311" transform="translate(44.295 29.584)">
                                        <path id="Path_610" d="M522.791 340.7s6.91-3.375 12.391-.826c-6.591-7.967-12.391.826-12.391.826z" class="cls-15" data-name="Path 610" transform="translate(-522.565 -336.536)"/>
                                        <ellipse id="Ellipse_71" cx="6.523" cy="7.087" class="cls-25" data-name="Ellipse 71" rx="6.523" ry="7.087" transform="matrix(.995 -.095 .095 .995 0 4.304)"/>
                                        <path id="Path_611" d="M531.281 363.192a6.43 6.43 0 1 1 5.879-7.022 6.476 6.476 0 0 1-5.879 7.022z" class="cls-26" data-name="Path 611" transform="translate(-523.497 -346.056)"/>
                                        <path id="Path_612" d="M535.91 366.474a4.847 4.847 0 1 1 4.145-5.262 4.738 4.738 0 0 1-4.145 5.262z" class="cls-35" data-name="Path 612" transform="translate(-528.092 -350.499)"/>
                                        <path id="Path_613" d="M540.163 369.67a3.089 3.089 0 1 1 2.641-3.353 3.02 3.02 0 0 1-2.641 3.353z" data-name="Path 613" transform="translate(-532.292 -355.111)"/>
                                        <path id="Path_614" d="M547.271 364.067a1.578 1.578 0 1 1 1.443-1.723 1.589 1.589 0 0 1-1.443 1.723z" class="cls-26" data-name="Path 614" transform="translate(-538.215 -353.325)"/>
                                    </g>
                                    <g id="Group_312" data-name="Group 312" transform="translate(24.049 30.715)">
                                        <path id="Path_615" d="M457.786 344.333s6.91-3.375 12.391-.826c-6.592-7.969-12.391.826-12.391.826z" class="cls-15" data-name="Path 615" transform="translate(-457.56 -340.168)"/>
                                        <ellipse id="Ellipse_72" cx="6.523" cy="7.087" class="cls-25" data-name="Ellipse 72" rx="6.523" ry="7.087" transform="rotate(-5.478 44.982 2.152)"/>
                                        <ellipse id="Ellipse_73" cx="6.523" cy="6.429" class="cls-26" data-name="Ellipse 73" rx="6.523" ry="6.429" transform="rotate(-5.51 51.578 1.837)"/>
                                        <ellipse id="Ellipse_74" cx="4.628" cy="4.842" class="cls-35" data-name="Ellipse 74" rx="4.628" ry="4.842" transform="rotate(-5.48 71.956 -20.504)"/>
                                        <path id="Path_616" d="M475.157 373.3a3.089 3.089 0 1 1 2.641-3.353 3.02 3.02 0 0 1-2.641 3.353z" data-name="Path 616" transform="translate(-467.286 -358.742)"/>
                                        <path id="Path_617" d="M482.265 367.7a1.578 1.578 0 1 1 1.443-1.723 1.589 1.589 0 0 1-1.443 1.723z" class="cls-26" data-name="Path 617" transform="translate(-473.209 -356.956)"/>
                                    </g>
                                    <path id="Path_618" d="M416.816 310.888c2.521-15.508 8.606-18.426 24.724-17.768-15.964-.652-33.089 8.733-31.83 25.875.762 15.174 12.761 25.766 34.111 22.869-.001.001-32.08.249-27.005-30.976z" class="cls-25" data-name="Path 618" transform="translate(-400.364 -277)"/>
                                    <g id="Group_313" data-name="Group 313" transform="translate(36.421 34.55)">
                                        <path id="Path_619" d="M502.392 354.442c1.623 8.147 5.712 11.01 5.568 13.84s-5.189 3.835-8.123 2.284a1.849 1.849 0 0 1-2.736-.422c-1.191-1.569 1.343-4.324 1.926-6.02 1.275-3.7.291-6.373.234-9.583-.051-2.867 2.639-2.594 3.131-.099z" class="cls-40" data-name="Path 619" transform="translate(-496.786 -352.48)"/>
                                        <path id="Path_620" d="M518.792 394.552a2.42 2.42 0 0 1-2.312 2.7 2.709 2.709 0 0 1-2.962-2.308 2.542 2.542 0 0 1 2.137-2.962 2.758 2.758 0 0 1 3.137 2.57z" class="cls-41" data-name="Path 620" transform="translate(-508.284 -379.657)"/>
                                        <path id="Path_621" d="M522.672 397.118a1.429 1.429 0 0 1-1.2 1.67 1.528 1.528 0 0 1-1.67-1.3 1.429 1.429 0 0 1 1.2-1.67 1.527 1.527 0 0 1 1.67 1.3z" class="cls-42" data-name="Path 621" transform="translate(-512.617 -382.311)"/>
                                        <path id="Path_622" d="M500.842 400.9a.684.684 0 0 1-.643.742.731.731 0 0 1-.846-.551.684.684 0 0 1 .643-.742.731.731 0 0 1 .846.551z" class="cls-58" data-name="Path 622" transform="translate(-498.548 -385.439)"/>
                                        <path id="Path_623" d="M507.927 354.467c1.575-.042.979 3.381 3.248 8.024.7 1.443-1.22 2.907-1.939.665s-2.86-8.647-1.309-8.689z" class="cls-41" data-name="Path 623" transform="translate(-504.078 -353.848)"/>
                                    </g>
                                    <path id="Path_624" d="M391.333 252.766c4.4-9.251 21.908-14.426 36.641-9.024 19.858 7.281 19.064 26.11 19.064 26.11-1.771-4.555-4.332-6.167-4.332-6.167a20.012 20.012 0 0 1 3.267 10.428 24.8 24.8 0 0 0-14.557-9.321c1.028 2.9 4.716 5.241 4.716 5.241-11.551-.638-18.253-5.87-18.253-5.87a17.294 17.294 0 0 0 4.872 5.245c-11.609.256-17.156-6.171-17.156-6.171a10.605 10.605 0 0 1-3.367 9.286c1.308-5.319.059-7.566.059-7.566a11.4 11.4 0 0 1-1.97 4.708 8.27 8.27 0 0 0-.919-4.342c-3.445 6.909-7.726 9.281-8.432 15.472-.608 5.335 1.844 12.033 1.844 12.033-7.072-.7-14.656-11.374-12.626-23.687s11.149-16.375 11.149-16.375z" class="cls-15" data-name="Path 624" transform="translate(-379.847 -241.55)"/>
                                    <path id="Path_625" d="M485.214 260.818c-4.838-6.529-17.027-11.391-29.67-7.733 9.688-.616 13.316 1.916 13.316 1.916s-11.215-1.078-18.42 3.678a44.9 44.9 0 0 1 17.588 1.436s-9.785-.158-14.672 4.363c12.361-2.432 24.093 3.391 24.093 3.391a15.281 15.281 0 0 0-6.3-4.52c-.265-.239 8.53-.55 14.5 2.931-2.044-4.538-10.1-7.52-15.539-8.464a33.481 33.481 0 0 1 15.104 3.002z" class="cls-59" data-name="Path 625" transform="translate(-428.453 -248.627)"/>
                                    <path id="Path_626" d="M489.524 416.842c3.422 5.159 15.214 4.207 16.051-2.493-1.641 4.584-10.683 5.688-16.051 2.493z" class="cls-60" data-name="Path 626" transform="translate(-455.364 -360.53)"/>
                                    <g id="Group_314" data-name="Group 314" transform="translate(.167 42.569)">
                                        <path id="Path_627" d="M393.249 386.842c-.6-4.208-4.98-10.655-10.061-7.986-7.173 3.767.706 17.278 9.169 12.424 0 0 1.36-1.156.892-4.438z" class="cls-52" data-name="Path 627" transform="translate(-380.384 -378.228)"/>
                                        <path id="Path_628" d="M388.8 388.538c-3.277 3.139 4.6 9.551 7.026 6.986 2.348-2.482-3.745-10.124-7.026-6.986z" class="cls-25" data-name="Path 628" transform="translate(-385.641 -384.814)"/>
                                    </g>
                                </g>
                            </g>
                        </g>
                    </g>
                </g>
            </g>
        </g>
    </g>
</svg>
