<svg xmlns="http://www.w3.org/2000/svg" viewBox="0 0 745 832" width="745" height="832">
	<style>
		tspan { white-space:pre }
		.shp0 { fill: #e9fdff } 
		.shp1 { fill: #d0fbff } 
		.shp2 { fill: #b8f1f5 } 
		.shp3 { fill: #9feaf0 } 
		.shp4 { fill: #ffffff } 
		.shp5 { fill: #bff3f7 } 
	</style>
	<g id="Group_460">
		<g id="Group_453">
			<g id="Group_452">
				<g id="Layer0_0_FILL">
					<path id="Path_878" class="shp0" d="M498.96 362.09C498.26 362.63 497.57 363.2 496.9 363.78C496.23 364.36 495.57 364.95 494.93 365.57C494.29 366.18 493.66 366.81 493.05 367.45C492.44 368.1 491.84 368.76 491.26 369.43C485.98 363.77 478.55 360.94 468.95 360.94C460.22 360.94 453.81 362.26 449.73 364.89C449.37 365.13 449.01 365.38 448.66 365.64C448.31 365.9 447.96 366.16 447.63 366.44C447.29 366.72 446.96 367 446.64 367.3C446.32 367.59 446.01 367.89 445.7 368.21C445.27 367.02 444.78 365.85 444.23 364.7C443.69 363.56 443.09 362.44 442.43 361.36C441.78 360.27 441.08 359.22 440.33 358.2C439.57 357.18 438.77 356.19 437.93 355.25C430.73 347.38 420.55 343.45 407.41 343.45C400.21 343.45 395.63 343.76 393.66 344.38C392.91 344.64 392.17 344.93 391.45 345.26C390.72 345.59 390.02 345.96 389.33 346.36C388.64 346.75 387.97 347.19 387.33 347.65C386.68 348.11 386.06 348.61 385.46 349.13C385.14 348.6 384.8 348.08 384.45 347.57C384.1 347.05 383.74 346.55 383.36 346.06C382.98 345.57 382.59 345.08 382.18 344.61C381.78 344.14 381.36 343.68 380.93 343.24C374.45 336.32 365.73 332.87 354.79 332.87C352.62 332.88 350.44 333.03 348.28 333.32C346.12 333.61 343.99 334.05 341.89 334.63C339.79 335.2 337.73 335.92 335.72 336.77C333.72 337.62 331.77 338.6 329.89 339.71C327.84 340.85 325.89 342.17 324.06 343.65C322.23 345.12 320.53 346.76 318.98 348.53C317.43 350.29 316.04 352.19 314.82 354.2C313.59 356.21 312.55 358.32 311.68 360.51C305.83 355.42 298.37 352.88 289.3 352.88C288.55 352.95 287.8 353.03 287.05 353.12C286.31 353.21 285.56 353.31 284.82 353.42C284.07 353.54 283.33 353.66 282.59 353.8C281.85 353.94 281.11 354.09 280.38 354.25L277.14 354.89C276.92 353.67 276.67 352.45 276.39 351.24C276.11 350.03 275.8 348.83 275.46 347.64C275.13 346.44 274.76 345.25 274.37 344.07C273.98 342.9 273.55 341.73 273.1 340.57C267.73 326.56 259.33 319.55 247.91 319.55C242.54 319.55 236.47 321.45 229.7 325.24C228.01 326.21 226.34 327.24 224.72 328.33C223.1 329.42 221.51 330.57 219.97 331.77C218.43 332.98 216.93 334.24 215.48 335.55C214.03 336.86 212.63 338.22 211.28 339.63C210.44 340.48 209.62 341.33 208.81 342.2C208 343.07 207.2 343.95 206.42 344.84C205.64 345.74 204.88 346.64 204.13 347.56C203.38 348.48 202.64 349.41 201.92 350.36C196.6 357.56 193.27 364.55 191.92 371.3C191.09 371.12 190.25 370.96 189.41 370.83C188.57 370.7 187.73 370.59 186.88 370.5C186.03 370.42 185.18 370.36 184.33 370.32C183.48 370.29 182.63 370.28 181.77 370.3C173.66 370.29 167.88 371.76 164.43 374.68C163.84 375.22 163.27 375.78 162.73 376.37C162.18 376.95 161.66 377.56 161.17 378.18C160.68 378.81 160.21 379.46 159.77 380.12C159.33 380.79 158.91 381.47 158.53 382.17C156.99 380.54 155.31 378.86 153.49 377.13C142.16 366.34 132.28 360.94 123.83 360.94C122.49 360.93 121.14 361 119.8 361.17C118.47 361.33 117.14 361.58 115.84 361.91C114.53 362.25 113.25 362.66 112 363.16C110.75 363.66 109.53 364.24 108.35 364.89C109.24 364.79 110.12 364.7 111.01 364.62C111.89 364.55 112.78 364.49 113.67 364.44C114.56 364.39 115.45 364.36 116.34 364.34C117.23 364.32 118.12 364.31 119 364.32C131.29 364.32 142.66 370.32 153.12 382.31C154.56 383.99 155.93 385.7 157.22 387.42C157.61 387 158.01 386.59 158.42 386.19C158.84 385.79 159.26 385.4 159.69 385.02C160.12 384.64 160.57 384.27 161.02 383.92C161.47 383.56 161.93 383.22 162.4 382.89C167.68 379.29 175.67 377.49 186.37 377.49C187.46 377.49 188.56 377.54 189.65 377.63C190.74 377.72 191.82 377.86 192.9 378.04C193.98 378.22 195.05 378.44 196.11 378.71C197.17 378.98 198.22 379.29 199.26 379.65C201.02 373.97 204.73 367.61 210.41 360.57C211.57 359.16 212.79 357.72 214.08 356.25C225.31 343.68 235.63 337.4 245.03 337.4C254.58 337.4 261.95 342.58 267.13 352.95C267.5 353.7 267.85 354.47 268.18 355.24C268.51 356.01 268.82 356.79 269.12 357.58C269.41 358.36 269.69 359.16 269.94 359.96C270.2 360.76 270.44 361.56 270.65 362.38C272.48 361.56 274.25 360.86 275.98 360.29C276.68 360.03 277.4 359.8 278.12 359.6C278.84 359.39 279.57 359.21 280.3 359.06C281.04 358.91 281.78 358.79 282.52 358.69C283.26 358.6 284.01 358.53 284.76 358.49C294.55 358.49 302.37 360.31 308.22 363.96C308.84 364.36 309.45 364.77 310.05 365.19C310.65 365.62 311.24 366.06 311.82 366.52C312.39 366.98 312.96 367.45 313.51 367.93C314.07 368.42 314.61 368.92 315.13 369.43C317 362.95 321.61 357.07 328.95 351.8C338.02 345.22 346.46 341.93 354.29 341.93C367.05 341.93 376.05 346.97 381.28 357.05C381.57 357.63 381.85 358.18 382.14 358.71C383.01 358.08 383.97 357.46 385.02 356.83C386.94 355.61 388.95 354.51 391.03 353.57C393.11 352.62 395.25 351.82 397.43 351.17C399.62 350.52 401.85 350.02 404.11 349.68C406.37 349.34 408.65 349.16 410.93 349.13C422.02 349.13 430.34 353.21 435.91 361.37C436.79 362.7 437.59 364.09 438.3 365.52C439.01 366.95 439.63 368.43 440.15 369.94C440.67 371.45 441.1 372.99 441.42 374.55C441.75 376.12 441.97 377.7 442.1 379.29C442.72 378.63 443.36 377.99 444.03 377.37C444.7 376.76 445.39 376.16 446.1 375.6C446.81 375.03 447.54 374.49 448.29 373.98C449.04 373.47 449.8 372.98 450.59 372.53C456.16 369.36 462.73 367.78 470.31 367.78C475.49 367.78 480.51 369.74 485.36 373.68C485.89 374.09 486.42 374.53 486.93 374.98C487.44 375.43 487.93 375.9 488.41 376.38C488.89 376.86 489.36 377.35 489.81 377.86C490.26 378.37 490.7 378.9 491.11 379.44C491.63 378.64 492.18 377.85 492.74 377.09C493.3 376.32 493.89 375.57 494.5 374.84C495.1 374.1 495.73 373.39 496.38 372.69C497.03 371.99 497.69 371.31 498.38 370.65C506.73 362.5 516.38 358.42 527.32 358.42C536.28 358.42 543.29 361.56 548.33 367.85C548.52 368.07 548.69 368.3 548.87 368.52C549.04 368.75 549.22 368.98 549.38 369.22C549.55 369.45 549.72 369.69 549.88 369.93C550.04 370.17 550.19 370.41 550.35 370.65C551.12 371.93 551.82 373.25 552.45 374.6C553.07 375.96 553.62 377.35 554.1 378.76C554.57 380.18 554.96 381.62 555.27 383.08C555.58 384.54 555.81 386.01 555.96 387.5C556.74 386.74 557.55 386.02 558.39 385.35C559.23 384.67 560.11 384.04 561.02 383.44C561.92 382.85 562.86 382.3 563.82 381.8C564.78 381.3 565.76 380.85 566.76 380.44C568.15 379.92 569.56 379.47 570.99 379.08C572.42 378.69 573.87 378.38 575.33 378.13C576.79 377.88 578.26 377.7 579.74 377.6C581.22 377.49 582.7 377.46 584.18 377.49C593.97 377.49 602.17 382.19 608.79 391.6C609.8 393.04 610.74 394.48 611.6 395.92C611.72 395.34 611.85 394.76 611.99 394.19C612.13 393.61 612.29 393.05 612.47 392.48C612.64 391.92 612.83 391.36 613.04 390.8C613.24 390.25 613.46 389.7 613.69 389.15C614.17 387.98 614.68 386.83 615.24 385.69C615.79 384.56 616.39 383.44 617.02 382.35C617.65 381.25 618.32 380.18 619.03 379.13C619.73 378.08 620.47 377.05 621.25 376.05C622.04 374.99 622.87 373.97 623.76 372.98C624.64 372 625.56 371.05 626.53 370.14C627.49 369.24 628.5 368.38 629.54 367.56C630.58 366.74 631.65 365.97 632.76 365.25C631.31 365.42 629.86 365.69 628.44 366.04C627.02 366.4 625.62 366.84 624.26 367.38C622.89 367.91 621.56 368.53 620.28 369.24C618.99 369.94 617.75 370.73 616.57 371.59C615.47 372.37 614.44 373.23 613.47 374.16C612.51 375.1 611.62 376.11 610.8 377.18C609.99 378.26 609.27 379.39 608.63 380.57C607.99 381.76 607.44 382.99 607 384.26C606.29 383.42 605.55 382.62 604.77 381.85C603.98 381.09 603.16 380.37 602.3 379.7C601.45 379.02 600.55 378.39 599.63 377.8C598.71 377.22 597.75 376.68 596.77 376.19C587.13 371.39 576 371.78 563.38 377.35C563.09 375.95 562.72 374.58 562.27 373.23C561.81 371.88 561.28 370.56 560.67 369.27C560.06 367.99 559.37 366.74 558.61 365.54C557.84 364.34 557.01 363.19 556.11 362.09C555.35 361.16 554.56 360.27 553.73 359.42C547.59 353.24 539.79 350.14 530.34 350.14C519.4 350.14 508.94 354.12 498.96 362.09L498.96 362.09Z" />
					<path id="Path_879" class="shp1" d="M746.84 333.37C738.73 334.04 729.95 338.67 720.5 347.26C710.47 356.43 704.98 366.02 704.02 376.05C703.78 375.76 703.51 375.48 703.22 375.19C701.96 373.92 700.56 372.78 699.07 371.79C697.57 370.8 695.97 369.97 694.31 369.3C692.64 368.64 690.91 368.14 689.15 367.82C687.38 367.51 685.59 367.37 683.79 367.41C677.03 367.41 670.81 369.98 665.15 375.11C664.87 375.37 664.6 375.63 664.33 375.89C664.05 376.15 663.79 376.42 663.52 376.69C663.26 376.96 663 377.23 662.74 377.51C662.49 377.79 662.23 378.07 661.98 378.35C661.76 377.93 661.51 377.51 661.26 377.1C661.01 376.68 660.74 376.28 660.47 375.88C660.19 375.48 659.9 375.1 659.6 374.72C659.3 374.33 658.99 373.96 658.67 373.6C657.47 372.18 656.12 370.91 654.63 369.79C653.15 368.68 651.54 367.73 649.85 366.97C648.15 366.22 646.38 365.65 644.56 365.29C642.74 364.93 640.88 364.77 639.02 364.82C638.5 364.82 637.98 364.83 637.45 364.84C636.93 364.86 636.41 364.89 635.89 364.92C635.36 364.96 634.84 365 634.32 365.06C633.8 365.11 633.28 365.18 632.76 365.25C631.65 365.97 630.58 366.74 629.54 367.56C628.5 368.38 627.49 369.24 626.53 370.14C625.56 371.05 624.64 371.99 623.76 372.98C622.88 373.97 622.04 374.99 621.25 376.05C620.47 377.05 619.73 378.08 619.03 379.13C618.32 380.17 617.65 381.25 617.02 382.34C616.39 383.44 615.8 384.55 615.24 385.69C614.68 386.83 614.17 387.98 613.69 389.15C613.46 389.69 613.24 390.24 613.04 390.8C612.83 391.35 612.64 391.91 612.47 392.48C612.3 393.04 612.14 393.61 611.99 394.19C611.85 394.76 611.72 395.34 611.6 395.91C610.74 394.48 609.8 393.04 608.8 391.6C602.17 382.19 593.97 377.49 584.18 377.49C582.7 377.45 581.22 377.49 579.74 377.6C578.26 377.7 576.79 377.88 575.33 378.13C573.87 378.37 572.42 378.69 570.99 379.08C569.56 379.46 568.15 379.92 566.76 380.44C565.76 380.85 564.78 381.3 563.82 381.8C562.86 382.3 561.92 382.85 561.02 383.44C560.11 384.03 559.23 384.67 558.39 385.35C557.55 386.02 556.74 386.74 555.96 387.5C555.81 386.01 555.58 384.54 555.27 383.08C554.96 381.62 554.57 380.18 554.1 378.76C553.62 377.34 553.07 375.96 552.45 374.6C551.82 373.25 551.12 371.93 550.35 370.65C550.19 370.41 550.04 370.17 549.88 369.93C549.72 369.69 549.55 369.45 549.38 369.22C549.22 368.98 549.04 368.75 548.87 368.52C548.69 368.29 548.52 368.07 548.33 367.85C543.29 361.56 536.28 358.42 527.32 358.42C516.37 358.42 506.73 362.49 498.38 370.65C497.69 371.31 497.03 371.99 496.38 372.69C495.73 373.39 495.1 374.1 494.5 374.84C493.89 375.57 493.3 376.32 492.74 377.09C492.18 377.85 491.63 378.64 491.11 379.43C490.7 378.9 490.26 378.37 489.81 377.86C489.36 377.35 488.89 376.86 488.41 376.38C487.93 375.89 487.44 375.43 486.93 374.98C486.42 374.53 485.89 374.09 485.35 373.68C480.51 369.74 475.49 367.78 470.31 367.78C462.73 367.78 456.16 369.36 450.59 372.53C449.8 372.98 449.04 373.47 448.29 373.98C447.54 374.49 446.81 375.03 446.1 375.6C445.39 376.16 444.7 376.75 444.03 377.37C443.36 377.99 442.72 378.63 442.1 379.29C441.97 377.7 441.75 376.12 441.42 374.55C441.1 372.99 440.67 371.44 440.15 369.93C439.63 368.42 439.01 366.95 438.3 365.52C437.59 364.09 436.79 362.7 435.91 361.37C430.34 353.21 422.02 349.14 410.93 349.13C408.65 349.16 406.37 349.34 404.11 349.68C401.85 350.02 399.62 350.51 397.43 351.16C395.25 351.81 393.11 352.62 391.03 353.57C388.95 354.51 386.94 355.61 385.02 356.83C383.96 357.46 383 358.08 382.14 358.71C381.85 358.18 381.57 357.62 381.28 357.05C376.05 346.97 367.05 341.93 354.29 341.93C346.47 341.93 338.02 345.22 328.95 351.8C321.61 357.07 317.01 362.95 315.13 369.43C314.61 368.92 314.07 368.42 313.51 367.93C312.96 367.45 312.39 366.98 311.82 366.52C311.24 366.06 310.65 365.62 310.05 365.19C309.45 364.77 308.84 364.36 308.22 363.96C302.37 360.31 294.55 358.49 284.76 358.49C284.01 358.53 283.26 358.6 282.52 358.69C281.78 358.79 281.04 358.91 280.3 359.06C279.57 359.21 278.84 359.39 278.12 359.59C277.4 359.8 276.68 360.03 275.98 360.29C274.25 360.86 272.48 361.56 270.65 362.37C270.44 361.56 270.2 360.76 269.94 359.96C269.69 359.16 269.41 358.36 269.12 357.58C268.82 356.79 268.51 356.01 268.18 355.24C267.84 354.47 267.49 353.7 267.13 352.95C261.94 342.58 254.58 337.4 245.03 337.4C235.62 337.4 225.31 343.69 214.08 356.26C212.78 357.72 211.56 359.16 210.41 360.58C204.73 367.61 201.01 373.97 199.25 379.65C198.22 379.29 197.17 378.98 196.11 378.71C195.05 378.45 193.98 378.22 192.9 378.04C191.82 377.86 190.74 377.72 189.65 377.63C188.56 377.54 187.47 377.49 186.37 377.49C175.67 377.49 167.69 379.29 162.41 382.89C161.94 383.22 161.47 383.56 161.02 383.92C160.57 384.27 160.13 384.64 159.69 385.02C159.26 385.4 158.84 385.79 158.43 386.19C158.01 386.59 157.61 387 157.22 387.43C155.93 385.7 154.56 384 153.12 382.32C142.66 370.32 131.29 364.32 119.01 364.32C118.12 364.31 117.23 364.32 116.34 364.34C115.45 364.36 114.56 364.39 113.67 364.44C112.78 364.49 111.9 364.55 111.01 364.63C110.12 364.7 109.24 364.79 108.36 364.9C107.61 365.31 106.88 365.75 106.17 366.21C105.46 366.68 104.76 367.16 104.08 367.68C103.4 368.19 102.74 368.72 102.09 369.28C101.45 369.84 100.83 370.41 100.22 371.01C94.32 376.82 89.52 384.83 85.83 395.06C78.44 393.09 68.46 393.83 55.88 397.29C55.74 395.8 55.55 394.29 55.31 392.75C55.03 391.04 54.68 389.34 54.26 387.66C53.84 385.97 53.34 384.31 52.78 382.67C52.21 381.03 51.57 379.41 50.87 377.83C50.16 376.24 49.38 374.69 48.54 373.17C40.62 358.73 29.88 351.51 16.3 351.51C12.41 351.51 7.13 353.16 0.46 356.48L0.46 831.58L746.84 831.58L746.84 333.37Z" />
					<path id="Path_880" class="shp2" d="M746.84 288.89C745.51 289.53 744.21 290.22 742.93 290.96C741.65 291.7 740.39 292.49 739.17 293.32C737.95 294.15 736.76 295.03 735.6 295.94C734.44 296.86 733.32 297.82 732.23 298.82C723.27 307.05 718.64 315.76 718.34 324.95C717.94 324.84 717.53 324.75 717.12 324.66C712.05 323.61 705.72 323.97 698.12 325.74C697.88 323.92 697.57 322.11 697.2 320.31C696.83 318.52 696.39 316.73 695.88 314.97C695.38 313.21 694.8 311.46 694.17 309.74C693.53 308.02 692.83 306.32 692.07 304.65C684.63 288.15 672.47 279.89 655.58 279.89C638.74 279.89 624.37 285.89 612.47 297.89C601.82 308.59 596.49 319.82 596.49 331.57C596.49 333.15 596.56 334.9 596.7 336.83L596.49 336.83C594.41 336.85 592.34 337.01 590.28 337.3C588.22 337.58 586.18 338 584.18 338.54C582.17 339.08 580.2 339.74 578.28 340.53C576.35 341.31 574.48 342.21 572.67 343.23C570.82 344.22 569.03 345.31 567.3 346.49C565.57 347.67 563.91 348.94 562.32 350.3C560.73 351.66 559.22 353.11 557.78 354.63C556.35 356.15 555 357.76 553.74 359.43C554.57 360.27 555.36 361.16 556.11 362.09C557.01 363.19 557.85 364.34 558.61 365.54C559.37 366.74 560.06 367.99 560.68 369.28C561.29 370.56 561.82 371.88 562.27 373.23C562.73 374.58 563.1 375.95 563.38 377.35C576 371.78 587.13 371.4 596.78 376.2C597.76 376.68 598.71 377.22 599.64 377.8C600.56 378.39 601.45 379.02 602.31 379.7C603.17 380.37 603.99 381.09 604.77 381.86C605.56 382.62 606.3 383.42 607 384.26C607.45 382.99 608 381.76 608.63 380.57C609.27 379.39 610 378.26 610.81 377.18C611.62 376.11 612.51 375.1 613.48 374.17C614.44 373.23 615.48 372.37 616.57 371.59C617.76 370.73 619 369.94 620.28 369.24C621.57 368.53 622.9 367.91 624.26 367.38C625.63 366.84 627.03 366.4 628.45 366.04C629.87 365.69 631.31 365.42 632.77 365.25C633.29 365.18 633.81 365.12 634.33 365.06C634.85 365.01 635.37 364.96 635.89 364.93C636.41 364.89 636.94 364.86 637.46 364.85C637.98 364.83 638.51 364.82 639.03 364.82C640.89 364.77 642.74 364.93 644.56 365.29C646.38 365.65 648.16 366.22 649.85 366.98C651.55 367.73 653.15 368.68 654.64 369.79C656.12 370.91 657.48 372.19 658.68 373.6C659 373.97 659.31 374.34 659.61 374.72C659.91 375.1 660.2 375.49 660.47 375.88C660.75 376.28 661.01 376.69 661.27 377.1C661.52 377.51 661.76 377.93 661.99 378.36C662.24 378.07 662.49 377.79 662.75 377.51C663 377.23 663.26 376.96 663.53 376.69C663.79 376.42 664.06 376.15 664.33 375.89C664.6 375.63 664.88 375.37 665.16 375.12C670.82 369.98 677.03 367.42 683.8 367.42C685.59 367.37 687.38 367.51 689.15 367.83C690.92 368.14 692.65 368.64 694.31 369.31C695.98 369.97 697.57 370.81 699.07 371.8C700.57 372.78 701.96 373.92 703.23 375.19C703.52 375.48 703.78 375.77 704.02 376.05C704.98 366.03 710.48 356.43 720.5 347.26C729.96 338.68 738.74 334.05 746.85 333.37L746.85 288.89M66.89 305.66C64.52 307.01 62.23 308.51 60.05 310.14C57.86 311.77 55.77 313.53 53.79 315.42C51.82 317.3 49.96 319.3 48.23 321.42C46.49 323.53 44.89 325.74 43.43 328.05C42.91 327.3 42.36 326.56 41.78 325.82C33.76 315.64 23.76 310.55 11.76 310.55C10.78 310.58 9.79 310.66 8.82 310.8C7.84 310.95 6.87 311.15 5.92 311.41C4.97 311.67 4.04 311.99 3.12 312.37C2.21 312.74 1.32 313.17 0.46 313.65L0.46 356.48C7.13 353.17 12.41 351.51 16.3 351.51C29.88 351.51 40.62 358.73 48.54 373.18C49.38 374.69 50.16 376.25 50.86 377.83C51.57 379.42 52.21 381.03 52.77 382.67C53.34 384.31 53.84 385.97 54.26 387.66C54.68 389.34 55.03 391.04 55.31 392.75C55.55 394.29 55.74 395.8 55.88 397.29C68.45 393.83 78.43 393.09 85.82 395.06C89.52 384.84 94.32 376.82 100.22 371.02C100.82 370.42 101.45 369.84 102.09 369.28C102.73 368.72 103.4 368.19 104.08 367.68C104.76 367.17 105.45 366.68 106.17 366.21C106.88 365.75 107.61 365.31 108.35 364.9C109.53 364.24 110.75 363.66 112 363.17C113.25 362.67 114.53 362.25 115.83 361.92C117.14 361.58 118.46 361.33 119.8 361.17C121.14 361.01 122.48 360.93 123.83 360.94C132.27 360.94 142.16 366.34 153.48 377.13C155.3 378.86 156.98 380.54 158.52 382.17C158.9 381.47 159.32 380.79 159.76 380.12C160.2 379.46 160.67 378.81 161.16 378.19C161.66 377.56 162.18 376.95 162.72 376.37C163.26 375.78 163.83 375.22 164.42 374.69C167.88 371.76 173.66 370.3 181.77 370.3C182.62 370.28 183.47 370.29 184.32 370.33C185.17 370.36 186.02 370.42 186.87 370.5C187.72 370.59 188.56 370.7 189.4 370.83C190.25 370.96 191.08 371.12 191.91 371.31C193.26 364.55 196.6 357.56 201.91 350.36C201.08 349.63 200.19 348.91 199.25 348.2C192.87 343.4 186.18 341 179.17 341C177.97 340.97 176.76 341 175.56 341.1C174.36 341.2 173.17 341.37 171.99 341.6C170.81 341.84 169.65 342.14 168.5 342.51C167.36 342.88 166.23 343.31 165.14 343.81C165.18 343.32 165.23 342.83 165.26 342.34C165.3 341.85 165.33 341.35 165.35 340.86C165.38 340.37 165.4 339.88 165.41 339.39C165.42 338.89 165.43 338.4 165.42 337.91C165.42 327.78 163 319.03 158.15 311.64C150.24 299.64 136.87 293.64 118.06 293.64C97.82 293.64 80.76 297.65 66.89 305.66L66.89 305.66Z" />
					<path id="Path_881" class="shp3" d="M746.84 0L0.46 0L0.46 313.65C1.32 313.17 2.21 312.74 3.12 312.36C4.04 311.99 4.97 311.67 5.92 311.41C6.87 311.15 7.84 310.94 8.82 310.8C9.79 310.66 10.78 310.57 11.76 310.55C23.76 310.55 33.76 315.64 41.78 325.81C42.36 326.55 42.91 327.3 43.43 328.04C44.89 325.73 46.49 323.52 48.23 321.41C49.96 319.3 51.82 317.3 53.79 315.41C55.77 313.53 57.86 311.76 60.05 310.13C62.23 308.5 64.52 307.01 66.89 305.66C80.76 297.64 97.82 293.63 118.07 293.63C136.88 293.63 150.24 299.63 158.16 311.63C163.01 319.02 165.43 327.78 165.43 337.9C165.43 338.39 165.42 338.88 165.41 339.38C165.4 339.87 165.38 340.36 165.36 340.85C165.34 341.35 165.31 341.84 165.27 342.33C165.23 342.82 165.19 343.31 165.14 343.8C166.24 343.3 167.36 342.87 168.51 342.5C169.65 342.14 170.82 341.83 172 341.6C173.18 341.36 174.37 341.19 175.57 341.09C176.77 340.99 177.97 340.96 179.17 340.99C186.18 340.99 192.88 343.39 199.26 348.19C200.2 348.9 201.09 349.62 201.92 350.35C202.64 349.41 203.37 348.48 204.12 347.56C204.87 346.64 205.64 345.73 206.42 344.83C207.2 343.94 208 343.06 208.81 342.19C209.62 341.32 210.44 340.47 211.28 339.63C212.63 338.22 214.03 336.85 215.48 335.54C216.93 334.23 218.43 332.97 219.97 331.77C221.51 330.56 223.1 329.42 224.72 328.33C226.34 327.24 228.01 326.21 229.7 325.24C236.47 321.45 242.54 319.55 247.91 319.55C259.33 319.55 267.73 326.56 273.1 340.57C273.55 341.73 273.97 342.89 274.37 344.07C274.76 345.25 275.13 346.44 275.46 347.63C275.8 348.83 276.11 350.03 276.39 351.24C276.66 352.45 276.91 353.67 277.13 354.89L280.37 354.24C281.11 354.08 281.85 353.94 282.59 353.8C283.33 353.66 284.07 353.54 284.81 353.42C285.56 353.31 286.3 353.21 287.05 353.11C287.8 353.02 288.55 352.94 289.3 352.88C298.37 352.88 305.83 355.42 311.68 360.5C312.54 358.32 313.59 356.21 314.81 354.2C316.04 352.19 317.43 350.29 318.98 348.52C320.53 346.75 322.23 345.12 324.06 343.64C325.88 342.17 327.84 340.85 329.89 339.7C331.77 338.6 333.71 337.62 335.72 336.77C337.73 335.92 339.79 335.2 341.89 334.62C343.99 334.05 346.12 333.61 348.28 333.32C350.44 333.02 352.61 332.87 354.79 332.87C365.73 332.87 374.44 336.32 380.92 343.23C381.35 343.68 381.77 344.14 382.17 344.61C382.58 345.08 382.97 345.56 383.35 346.06C383.73 346.55 384.09 347.05 384.45 347.57C384.8 348.08 385.13 348.6 385.45 349.13C386.05 348.61 386.67 348.11 387.32 347.65C387.96 347.18 388.63 346.75 389.32 346.35C390.01 345.96 390.71 345.59 391.44 345.26C392.16 344.93 392.9 344.64 393.65 344.38C395.62 343.76 400.21 343.45 407.4 343.45C420.55 343.45 430.72 347.38 437.92 355.25C438.77 356.19 439.57 357.18 440.32 358.19C441.07 359.21 441.78 360.27 442.43 361.36C443.08 362.44 443.68 363.56 444.23 364.7C444.77 365.85 445.27 367.02 445.7 368.21C446 367.9 446.32 367.59 446.64 367.3C446.96 367 447.29 366.72 447.62 366.44C447.96 366.16 448.3 365.9 448.66 365.64C449.01 365.38 449.37 365.13 449.73 364.9C453.81 362.26 460.21 360.94 468.95 360.94C478.55 360.94 485.98 363.77 491.26 369.43C491.84 368.76 492.43 368.1 493.04 367.45C493.66 366.81 494.28 366.18 494.93 365.57C495.57 364.96 496.23 364.36 496.9 363.78C497.57 363.2 498.26 362.63 498.96 362.09C508.94 354.12 519.4 350.14 530.34 350.14C539.79 350.14 547.59 353.24 553.73 359.43C554.99 357.76 556.34 356.15 557.78 354.63C559.21 353.11 560.73 351.66 562.32 350.3C563.91 348.94 565.57 347.67 567.3 346.49C569.03 345.31 570.82 344.22 572.66 343.23C574.47 342.21 576.35 341.31 578.27 340.53C580.19 339.74 582.17 339.08 584.17 338.54C586.18 338 588.22 337.58 590.28 337.3C592.33 337.01 594.41 336.85 596.49 336.83L596.7 336.83C596.56 334.9 596.49 333.15 596.49 331.57C596.49 319.82 601.81 308.59 612.46 297.89C624.36 285.89 638.73 279.89 655.58 279.89C672.47 279.89 684.63 288.15 692.07 304.65C692.83 306.32 693.53 308.02 694.16 309.74C694.8 311.46 695.37 313.21 695.88 314.97C696.38 316.73 696.82 318.52 697.19 320.31C697.57 322.11 697.87 323.92 698.11 325.74C705.71 323.97 712.05 323.61 717.11 324.66C717.53 324.75 717.93 324.84 718.33 324.95C718.63 315.76 723.26 307.05 732.23 298.82C733.31 297.82 734.44 296.86 735.6 295.94C736.75 295.03 737.95 294.15 739.17 293.32C740.39 292.49 741.64 291.7 742.92 290.96C744.2 290.22 745.51 289.53 746.84 288.89L746.84 0Z" />
				</g>
			</g>
		</g>
		<g id="Group_455">
			<g id="Group_454">
				<g id="Layer0_1_FILL">
					<path id="Path_882" class="shp4" d="M755.98 648.86C755.52 648.77 755.06 648.68 754.59 648.61C754.13 648.54 753.66 648.48 753.19 648.43C752.72 648.38 752.25 648.34 751.78 648.32C751.31 648.3 750.84 648.29 750.37 648.29C738.52 648.29 728.61 651.43 720.64 657.72C719.63 658.52 718.65 659.36 717.69 660.24C717.63 659.19 717.54 658.15 717.41 657.12C717.29 656.08 717.14 655.05 716.96 654.02C716.78 652.99 716.57 651.97 716.33 650.95C716.09 649.94 715.83 648.93 715.53 647.93C712.41 637.8 706.58 632.74 698.04 632.74C691.52 632.74 684.97 635.55 678.39 641.16C672.39 646.31 667.09 653.29 662.49 662.11C662.27 661.78 662.05 661.46 661.82 661.15C661.59 660.84 661.35 660.53 661.11 660.23C660.86 659.93 660.61 659.64 660.34 659.35C660.08 659.06 659.81 658.78 659.54 658.51C654.92 653.96 649.02 653.27 641.83 656.42C641.22 649.97 639.8 644.98 637.58 641.45C633.55 635.02 626.5 631.81 616.42 631.8C614.7 631.77 612.98 631.84 611.26 632.01C609.55 632.19 607.85 632.47 606.17 632.86C604.49 633.25 602.83 633.74 601.22 634.33C599.6 634.93 598.02 635.62 596.49 636.41C594.97 637.22 593.52 638.16 592.16 639.22C590.8 640.28 589.54 641.45 588.39 642.73C587.24 644.02 586.2 645.39 585.29 646.86C584.38 648.32 583.6 649.86 582.95 651.45C582.95 651.46 582.94 651.46 582.94 651.46C582.93 651.46 582.93 651.46 582.92 651.46C582.91 651.46 582.91 651.46 582.9 651.46C582.89 651.46 582.89 651.46 582.88 651.45C579.14 648.14 574.1 646.48 567.77 646.48C559.66 646.48 552.6 648.09 546.61 651.31C537.83 655.96 531.76 663.83 528.4 674.91L755.98 771.29L755.98 648.86M74.31 616.62C65.38 608.94 56.34 605.1 47.17 605.1C44.06 605.11 40.96 605.32 37.88 605.72C34.79 606.13 31.74 606.72 28.73 607.51C25.72 608.3 22.77 609.28 19.88 610.44C17 611.6 14.19 612.94 11.47 614.46C9.97 615.25 8.5 616.11 7.07 617.03C5.64 617.96 4.26 618.95 2.93 620.01C1.59 621.06 0.31 622.18 -0.92 623.36C-2.15 624.53 -3.32 625.77 -4.43 627.05L-4.43 769.49L257.7 678.59C259.09 668.75 256.57 658.77 250.14 648.64C243.04 637.42 234.12 631.8 223.37 631.8C208.81 631.8 198.87 639.53 193.57 654.98C193.2 654.33 192.75 653.74 192.22 653.22C191.69 652.7 191.09 652.26 190.44 651.91C189.79 651.55 189.09 651.29 188.37 651.13C187.64 650.97 186.9 650.91 186.16 650.95C185.78 650.94 185.39 650.93 185.01 650.95C184.63 650.96 184.25 650.99 183.87 651.03C183.49 651.07 183.11 651.13 182.74 651.2C182.36 651.27 181.99 651.36 181.62 651.46C181.07 651.63 180.42 651.87 179.68 652.18C177.78 647.22 175.15 643.53 171.76 641.09C171.23 640.66 170.65 640.27 170.05 639.93C169.45 639.58 168.83 639.29 168.18 639.04C167.53 638.8 166.87 638.61 166.19 638.47C165.51 638.33 164.83 638.24 164.13 638.21C160.3 638.21 155.67 640.73 150.24 645.77C149.78 646.19 149.32 646.62 148.87 647.06C148.42 647.5 147.97 647.94 147.53 648.39C147.1 648.84 146.66 649.3 146.24 649.76C145.82 650.22 145.4 650.69 144.99 651.17C145.48 644.55 143.13 638.27 137.94 632.31C132.18 625.79 125.32 622.52 117.35 622.52C104.2 622.52 94.58 626.17 88.49 633.47C87.56 631.87 86.57 630.32 85.5 628.81C84.44 627.3 83.32 625.84 82.13 624.43C80.94 623.02 79.69 621.66 78.39 620.35C77.08 619.05 75.72 617.8 74.31 616.62L74.31 616.62Z" />
				</g>
			</g>
		</g>
		<g id="Group_457">
			<g id="Group_456">
				<g id="Layer0_10_FILL">
					<path id="Path_883" class="shp5" d="M723.96 415.92C716.6 415.76 710.47 418.02 705.56 422.69C704.8 423.4 704.08 424.16 703.42 424.97C702.75 425.77 702.14 426.62 701.59 427.51C701.03 428.39 700.54 429.31 700.1 430.26C699.67 431.21 699.29 432.19 698.99 433.19C698.54 433.12 698.09 433.06 697.64 433.01C697.19 432.96 696.74 432.92 696.29 432.88C695.84 432.84 695.38 432.81 694.93 432.79C694.48 432.76 694.03 432.75 693.58 432.74C690.37 432.66 687.17 432.82 684 433.22C680.82 433.62 677.68 434.26 674.6 435.12C671.52 435.99 668.51 437.09 665.59 438.41C662.67 439.73 659.86 441.27 657.18 443.01C656.16 443.64 655.17 444.29 654.19 444.98C653.22 445.66 652.27 446.37 651.33 447.11C650.4 447.85 649.49 448.62 648.61 449.41C647.72 450.21 646.86 451.03 646.02 451.87C645.55 451.41 645.06 450.97 644.56 450.55C644.06 450.13 643.54 449.73 643 449.34C642.47 448.96 641.92 448.6 641.35 448.27C640.79 447.93 640.21 447.62 639.63 447.32C635.66 445.14 632.2 444.02 629.26 443.96C617.8 443.72 608.2 447.62 600.45 455.66C596.12 460.07 593.22 464.4 591.75 468.65C591.54 468.51 591.33 468.37 591.12 468.24C590.9 468.11 590.69 467.98 590.47 467.86C590.24 467.74 590.02 467.62 589.79 467.51C589.57 467.4 589.34 467.29 589.11 467.19C588.22 466.86 587.31 466.56 586.39 466.31C585.47 466.05 584.54 465.84 583.6 465.68C582.66 465.51 581.72 465.39 580.76 465.31C579.81 465.24 578.86 465.21 577.91 465.22C577.31 465.2 576.71 465.2 576.11 465.22C575.5 465.24 574.9 465.27 574.31 465.32C573.71 465.37 573.11 465.43 572.51 465.51C571.92 465.59 571.33 465.69 570.74 465.8C569.94 466.27 569.18 466.79 568.46 467.36C567.74 467.93 567.06 468.56 566.43 469.23C565.8 469.9 565.22 470.62 564.69 471.37C564.16 472.13 563.69 472.92 563.28 473.74C564.81 475.29 570.69 476.33 580.94 476.86C583.3 476.95 594.36 477.18 614.1 477.55C664.95 483.31 700.57 490.28 720.96 498.47C735.82 504.35 750.39 510.93 764.69 518.18L766.63 425.78C763.06 423.93 760.27 422.98 758.27 422.93C757.37 422.9 756.48 422.92 755.59 422.97C754.7 423.02 753.81 423.11 752.93 423.24C752.04 423.38 751.17 423.55 750.3 423.76C749.43 423.97 748.57 424.23 747.73 424.52C747.36 424.64 746.99 424.78 746.62 424.92C746.25 425.07 745.89 425.22 745.53 425.38C745.17 425.54 744.81 425.71 744.46 425.88C744.1 426.06 743.75 426.24 743.41 426.43C739.63 419.62 733.14 416.11 723.96 415.92L723.96 415.92Z" />
					<path id="Path_884" class="shp4" d="M653.98 413.24C646.18 413.08 638.64 416.35 631.37 423.07C630.23 424.07 629.16 425.15 628.16 426.29C627.16 427.42 626.24 428.63 625.39 429.88C624.54 431.14 623.77 432.44 623.08 433.79C622.4 435.15 621.8 436.54 621.29 437.97C620.85 437.86 620.4 437.77 619.95 437.69C619.51 437.61 619.06 437.54 618.61 437.48C618.15 437.43 617.7 437.39 617.25 437.36C616.8 437.33 616.34 437.32 615.89 437.32C609.11 437.17 602.86 440.88 597.13 448.43C596.27 449.54 595.46 450.69 594.69 451.87C593.93 453.04 593.21 454.25 592.54 455.49C591.87 456.72 591.25 457.98 590.68 459.26C590.11 460.55 589.59 461.85 589.13 463.18C588.37 462.85 587.64 462.56 586.93 462.33C586.66 462.28 586.38 462.24 586.1 462.2C585.83 462.17 585.55 462.14 585.27 462.12C584.99 462.09 584.71 462.08 584.43 462.07C584.15 462.06 583.88 462.05 583.6 462.06C582.62 462.05 581.65 462.11 580.68 462.23C579.71 462.35 578.75 462.53 577.8 462.77C576.86 463.01 575.93 463.31 575.02 463.66C574.11 464.02 573.22 464.43 572.37 464.9L570.74 465.8C571.33 465.68 571.92 465.59 572.52 465.51C573.11 465.42 573.71 465.36 574.31 465.31C574.91 465.26 575.51 465.23 576.11 465.21C576.71 465.2 577.31 465.2 577.91 465.21C578.86 465.2 579.82 465.23 580.77 465.31C581.72 465.38 582.67 465.51 583.6 465.67C584.54 465.84 585.47 466.05 586.39 466.3C587.31 466.55 588.22 466.85 589.11 467.19C589.34 467.29 589.57 467.39 589.8 467.5C590.02 467.62 590.25 467.73 590.47 467.85C590.69 467.98 590.91 468.1 591.12 468.24C591.34 468.37 591.55 468.51 591.76 468.65C593.23 464.4 596.13 460.07 600.46 455.65C608.21 447.61 617.81 443.71 629.26 443.95C632.21 444.02 635.66 445.14 639.63 447.32C640.22 447.61 640.79 447.92 641.36 448.26C641.92 448.6 642.47 448.96 643.01 449.34C643.54 449.72 644.06 450.12 644.56 450.54C645.07 450.96 645.55 451.41 646.02 451.87C646.86 451.02 647.72 450.2 648.61 449.41C649.5 448.61 650.41 447.85 651.34 447.11C652.27 446.37 653.22 445.65 654.2 444.97C655.17 444.29 656.17 443.63 657.18 443C659.87 441.26 662.68 439.73 665.59 438.41C668.51 437.09 671.52 435.99 674.6 435.12C677.68 434.25 680.83 433.61 684 433.21C687.18 432.81 690.38 432.65 693.58 432.73C694.03 432.74 694.48 432.76 694.94 432.78C695.39 432.8 695.84 432.83 696.29 432.87C696.74 432.91 697.19 432.95 697.64 433.01C698.09 433.06 698.54 433.12 698.99 433.18C699.3 432.18 699.67 431.21 700.1 430.26C700.54 429.31 701.04 428.39 701.59 427.5C702.14 426.62 702.76 425.77 703.42 424.96C704.08 424.16 704.8 423.4 705.56 422.68C710.48 418.02 716.61 415.76 723.96 415.91C733.15 416.1 739.63 419.61 743.41 426.42C743.75 426.23 744.1 426.04 744.46 425.87C744.81 425.69 745.17 425.53 745.53 425.37C745.89 425.21 746.25 425.05 746.62 424.91C746.99 424.77 747.36 424.63 747.73 424.5C748.57 424.21 749.43 423.96 750.3 423.75C751.17 423.54 752.04 423.36 752.93 423.23C753.81 423.1 754.7 423.01 755.59 422.95C756.48 422.9 757.37 422.89 758.27 422.92C760.27 422.96 763.06 423.91 766.63 425.77L766.71 421.83C766.04 421.47 765.34 421.15 764.63 420.87C763.92 420.59 763.2 420.35 762.46 420.15C761.72 419.94 760.97 419.78 760.22 419.67C759.46 419.55 758.7 419.47 757.93 419.44C756.7 419.39 755.46 419.41 754.22 419.5C752.98 419.59 751.75 419.75 750.54 419.98C749.32 420.21 748.11 420.5 746.93 420.86C745.74 421.22 744.57 421.65 743.43 422.14C743.21 421.49 742.98 420.85 742.73 420.22C742.48 419.58 742.22 418.95 741.95 418.33C741.68 417.7 741.39 417.08 741.1 416.47C740.8 415.85 740.5 415.25 740.18 414.64C735.98 406.44 730.98 402.27 725.19 402.15C721.14 402.07 715.15 404.82 707.23 410.4C698.53 416.51 693.99 422.66 693.59 428.85C690.05 427.57 684.48 428.61 676.87 431.97C676.43 425.45 673.79 420.6 668.95 417.42C665.03 414.76 660.04 413.37 653.98 413.24L653.98 413.24Z" />
				</g>
			</g>
		</g>
		<g id="Group_459">
			<g id="Group_458">
				<g id="Layer0_11_FILL">
					<path id="Path_885" class="shp5" d="M65.65 504.14C65.17 504.49 64.7 504.86 64.26 505.26C63.81 505.66 63.39 506.08 62.99 506.52C62.59 506.97 62.21 507.43 61.86 507.92C61.51 508.4 61.19 508.91 60.89 509.43C60.81 509.36 60.72 509.28 60.61 509.19C59.46 508.23 58.24 507.38 56.96 506.63C55.67 505.88 54.32 505.24 52.93 504.72C51.53 504.19 50.1 503.79 48.64 503.5C47.18 503.22 45.7 503.06 44.21 503.02C42.94 503 41.68 503.03 40.42 503.13C39.16 503.23 37.9 503.39 36.66 503.61C35.41 503.82 34.17 504.1 32.96 504.44C31.74 504.77 30.53 505.17 29.35 505.62C28.54 505.9 27.74 506.22 26.96 506.57C26.18 506.93 25.41 507.32 24.67 507.75C23.92 508.17 23.2 508.64 22.5 509.13C21.8 509.63 21.12 510.15 20.47 510.71C20.38 510.37 20.28 510.03 20.18 509.69C20.07 509.36 19.97 509.02 19.85 508.69C19.74 508.35 19.62 508.02 19.49 507.69C19.36 507.36 19.23 507.04 19.09 506.71C15.11 497.79 8.33 493.17 -1.27 492.84C-2.46 492.85 -3.65 492.89 -4.83 492.98C-6.02 493.08 -7.2 493.21 -8.38 493.4C-9.55 493.58 -10.72 493.8 -11.88 494.07C-13.04 494.34 -14.18 494.65 -15.32 495.01L-16.06 495.22C-23.76 502.18 -27.99 512.55 -28.74 526.33L-30 568.1C1.96 556.89 37.82 547.4 77.58 539.63C119.63 531.36 150.03 528.58 168.76 531.27C169.76 527.78 168.57 525.35 165.21 523.98C164.87 523.84 164.53 523.72 164.18 523.62C163.83 523.52 163.48 523.43 163.12 523.37C162.77 523.3 162.41 523.26 162.05 523.23C161.69 523.2 161.32 523.2 160.96 523.21C160.61 523.23 160.26 523.27 159.91 523.33C159.56 523.38 159.21 523.45 158.86 523.52C158.52 523.6 158.17 523.7 157.84 523.8C157.5 523.91 157.16 524.03 156.83 524.16C156.55 523.86 156.27 523.56 155.97 523.28C155.68 522.99 155.38 522.71 155.08 522.43C154.77 522.16 154.46 521.89 154.14 521.64C153.82 521.38 153.49 521.13 153.16 520.88C152.6 520.45 152.02 520.05 151.41 519.68C150.81 519.3 150.19 518.96 149.56 518.64C148.92 518.33 148.27 518.04 147.61 517.79C146.95 517.54 146.28 517.32 145.59 517.13C144.8 517.19 144.01 517.29 143.22 517.42C142.43 517.55 141.65 517.72 140.88 517.91C140.11 518.11 139.34 518.33 138.59 518.59C137.83 518.85 137.09 519.14 136.36 519.46C135.32 519.93 134.3 520.44 133.29 520.98C132.28 521.52 131.29 522.09 130.32 522.69C129.34 523.29 128.39 523.92 127.46 524.58C126.52 525.24 125.61 525.92 124.72 526.64C124.73 526.55 124.74 526.45 124.74 526.35C124.75 526.26 124.76 526.16 124.76 526.07C124.77 525.97 124.77 525.88 124.77 525.78C124.78 525.69 124.78 525.59 124.78 525.5C124.79 524.74 124.78 523.98 124.74 523.23C124.7 522.47 124.63 521.72 124.54 520.97C124.45 520.22 124.33 519.47 124.19 518.72C124.05 517.98 123.88 517.24 123.69 516.51C122.43 512.27 120.27 510.09 117.21 509.99C116.61 509.97 116.01 510 115.42 510.08C114.83 510.16 114.25 510.28 113.67 510.44C113.1 510.61 112.54 510.82 112 511.07C111.46 511.32 110.94 511.61 110.44 511.94C110.09 512.17 109.75 512.41 109.41 512.66C109.08 512.91 108.76 513.18 108.45 513.45C108.13 513.73 107.83 514.02 107.54 514.32C107.25 514.62 106.98 514.93 106.71 515.26C106.62 515.06 106.52 514.86 106.42 514.67C106.32 514.48 106.21 514.29 106.09 514.1C105.98 513.92 105.86 513.73 105.73 513.56C105.6 513.38 105.47 513.2 105.34 513.03C102.89 510.08 98.95 508.52 93.52 508.33C93.1 508.31 92.68 508.31 92.26 508.32C91.84 508.34 91.43 508.36 91.01 508.41C90.59 508.45 90.18 508.51 89.76 508.58C89.35 508.66 88.94 508.75 88.53 508.85C88.48 508.53 88.41 508.2 88.33 507.88C88.25 507.56 88.16 507.24 88.06 506.93C87.96 506.62 87.85 506.3 87.73 506C87.61 505.69 87.47 505.38 87.33 505.09C85.69 501.63 82.8 499.83 78.67 499.69C77.5 499.67 76.33 499.75 75.18 499.94C74.02 500.12 72.88 500.4 71.78 500.78C70.67 501.16 69.59 501.63 68.57 502.19C67.54 502.75 66.57 503.41 65.65 504.14L65.65 504.14Z" />
					<path id="Path_886" class="shp4" d="M89.97 493.19C87.75 486.09 83.81 482.44 78.15 482.25C73.22 482.08 68.19 485.09 63.07 491.26C62.28 492.2 61.52 493.17 60.81 494.18C60.1 495.18 59.43 496.21 58.8 497.27C58.18 498.33 57.6 499.42 57.07 500.53C56.54 501.63 56.05 502.76 55.62 503.92C55.28 503.49 54.94 503.1 54.59 502.74C51.56 499.65 47.53 498.03 42.48 497.86C40.99 497.78 39.5 497.84 38.02 498.03C36.53 498.22 35.07 498.54 33.65 498.98C32.22 499.43 30.84 500 29.51 500.69C28.19 501.37 26.93 502.18 25.74 503.09C25.57 503.22 25.4 503.35 25.24 503.48C25.07 503.62 24.91 503.75 24.74 503.89C24.58 504.03 24.42 504.17 24.26 504.31C24.1 504.46 23.95 504.6 23.79 504.75C23.48 503.78 23.15 502.89 22.81 502.07C18.92 492.69 12.28 487.85 2.92 487.53C-3.58 487.31 -9.74 489.73 -15.55 494.77L-16.06 495.21C-15.82 495.14 -15.56 495.08 -15.32 495.01C-14.19 494.65 -13.04 494.34 -11.88 494.07C-10.72 493.8 -9.55 493.57 -8.38 493.39C-7.2 493.21 -6.02 493.08 -4.83 492.98C-3.65 492.89 -2.46 492.84 -1.27 492.84C8.33 493.16 15.11 497.79 19.09 506.71C19.23 507.04 19.36 507.36 19.49 507.69C19.61 508.02 19.74 508.35 19.85 508.69C19.97 509.02 20.07 509.36 20.18 509.69C20.28 510.03 20.38 510.37 20.46 510.71C21.12 510.15 21.79 509.63 22.5 509.13C23.2 508.63 23.92 508.17 24.67 507.75C25.41 507.32 26.18 506.93 26.96 506.57C27.74 506.22 28.54 505.9 29.35 505.62C30.53 505.17 31.74 504.77 32.95 504.44C34.17 504.1 35.41 503.82 36.65 503.6C37.9 503.39 39.16 503.23 40.42 503.13C41.68 503.03 42.94 502.99 44.21 503.02C45.69 503.06 47.18 503.22 48.64 503.5C50.1 503.79 51.53 504.19 52.93 504.72C54.32 505.24 55.67 505.88 56.95 506.63C58.24 507.38 59.46 508.23 60.61 509.19C60.72 509.28 60.81 509.36 60.89 509.42C61.19 508.91 61.51 508.4 61.86 507.92C62.21 507.43 62.59 506.97 62.99 506.52C63.39 506.08 63.81 505.66 64.25 505.26C64.7 504.86 65.17 504.48 65.65 504.14C66.57 503.41 67.54 502.76 68.57 502.19C69.59 501.63 70.66 501.16 71.77 500.78C72.88 500.4 74.02 500.12 75.17 499.94C76.33 499.76 77.5 499.68 78.67 499.7C82.8 499.84 85.68 501.63 87.33 505.09C87.47 505.39 87.6 505.69 87.72 506C87.84 506.31 87.95 506.62 88.05 506.94C88.15 507.25 88.24 507.57 88.32 507.89C88.4 508.21 88.47 508.53 88.53 508.86C88.93 508.75 89.34 508.66 89.76 508.59C90.17 508.52 90.58 508.46 91 508.41C91.42 508.37 91.84 508.34 92.26 508.33C92.68 508.32 93.1 508.32 93.51 508.34C98.94 508.52 102.88 510.09 105.33 513.04C105.47 513.21 105.6 513.38 105.72 513.56C105.85 513.74 105.97 513.92 106.08 514.11C106.2 514.29 106.31 514.48 106.41 514.68C106.51 514.87 106.61 515.06 106.7 515.26C106.97 514.94 107.25 514.63 107.54 514.33C107.83 514.03 108.13 513.74 108.44 513.46C108.75 513.18 109.07 512.92 109.41 512.67C109.74 512.41 110.08 512.17 110.43 511.95C110.93 511.62 111.45 511.33 111.99 511.08C112.53 510.82 113.09 510.62 113.67 510.45C114.24 510.28 114.82 510.16 115.42 510.09C116.01 510.01 116.6 509.98 117.2 509.99C120.26 510.1 122.42 512.27 123.68 516.52C123.87 517.25 124.04 517.99 124.18 518.73C124.33 519.47 124.44 520.22 124.53 520.97C124.63 521.72 124.69 522.48 124.73 523.23C124.77 523.99 124.78 524.75 124.77 525.5C124.77 525.6 124.77 525.69 124.77 525.79C124.76 525.88 124.76 525.98 124.76 526.07C124.75 526.17 124.75 526.27 124.74 526.36C124.73 526.46 124.72 526.55 124.71 526.65C125.6 525.93 126.51 525.24 127.45 524.58C128.38 523.92 129.34 523.29 130.31 522.69C131.28 522.09 132.27 521.52 133.28 520.98C134.29 520.45 135.31 519.94 136.35 519.46C137.08 519.14 137.83 518.86 138.58 518.6C139.34 518.34 140.1 518.11 140.87 517.92C141.65 517.72 142.43 517.56 143.21 517.43C144 517.3 144.79 517.2 145.59 517.13C145.27 517.05 144.96 516.97 144.64 516.9C144.32 516.84 144 516.78 143.68 516.73C143.36 516.68 143.04 516.64 142.72 516.61C142.39 516.58 142.07 516.56 141.74 516.55C140.86 516.5 139.97 516.51 139.09 516.58C138.21 516.65 137.33 516.78 136.47 516.96C135.6 517.15 134.75 517.39 133.92 517.68C133.08 517.98 132.27 518.33 131.48 518.73C131.09 518.92 130.71 519.13 130.34 519.36C129.97 519.58 129.61 519.83 129.26 520.09C128.92 520.36 128.58 520.63 128.26 520.93C127.94 521.22 127.64 521.53 127.35 521.86L127.35 521.23C127.37 520.16 127.35 519.08 127.29 518.01C127.23 516.94 127.14 515.87 127 514.81C126.87 513.74 126.7 512.68 126.49 511.63C126.28 510.58 126.03 509.54 125.75 508.5C124.22 503.21 121.75 500.51 118.35 500.4C114.3 500.27 110.02 502.44 105.5 506.91C105.42 506.81 105.34 506.71 105.25 506.61C105.16 506.51 105.07 506.41 104.98 506.32C104.89 506.23 104.8 506.13 104.7 506.04C104.61 505.95 104.51 505.87 104.41 505.78C101.73 503.54 97.49 503.11 91.68 504.5C91.68 503.54 91.65 502.59 91.58 501.63C91.51 500.68 91.4 499.73 91.26 498.78C91.11 497.83 90.93 496.89 90.72 495.96C90.5 495.03 90.25 494.11 89.97 493.19L89.97 493.19Z" />
				</g>
			</g>
		</g>
	</g>
</svg>