<svg xmlns="http://www.w3.org/2000/svg" id="Group_462" width="375" height="812" data-name="Group 462" viewBox="0 0 375 812">
    <defs>
        <style>
            .cls-1{fill:none}.cls-2{clip-path:url(#clip-path)}.cls-3{fill:#e9fdff}.cls-4{fill:#d0fbff}.cls-5{fill:#b8f1f5}.cls-6{fill:#9feaf0}.cls-7{fill:#fff}.cls-8{fill:#bff3f7}
        </style>
        <clipPath id="clip-path">
            <path id="Rectangle_25" d="M0 0h375v812H0z" class="cls-1" data-name="Rectangle 25"/>
        </clipPath>
    </defs>
    <g id="Group_461" class="cls-2" data-name="Group 461">
        <g id="Group_460" data-name="Group 460" transform="translate(-180 15)">
            <g id="Group_453" data-name="Group 453" transform="translate(.051 -34.207)">
                <g id="Group_452" data-name="Group 452">
                    <g id="Layer0_0_FILL" data-name="Layer0 0 FILL">
                        <path id="Path_878" d="M456.308 230.317a53.728 53.728 0 0 0-7.7 7.343q-7.916-8.494-22.312-8.494-13.1 0-19.216 3.959a23.7 23.7 0 0 0-4.031 3.311 39.857 39.857 0 0 0-7.775-12.955q-10.8-11.8-30.516-11.8-10.8 0-13.749.934a24.265 24.265 0 0 0-8.2 4.75 33.574 33.574 0 0 0-4.534-5.9q-9.723-10.365-26.134-10.365a49.2 49.2 0 0 0-24.9 6.838 40.974 40.974 0 0 0-18.21 20.8q-8.782-7.631-22.386-7.629a72.887 72.887 0 0 0-8.923 1.368l-3.239.646a77.643 77.643 0 0 0-4.032-14.322q-8.06-21.016-25.191-21.018-8.06 0-18.208 5.687a81.493 81.493 0 0 0-18.426 14.395 107.421 107.421 0 0 0-9.357 10.724q-7.976 10.807-10 20.945a43.868 43.868 0 0 0-10.148-1.009q-12.165 0-17.347 4.39a29.145 29.145 0 0 0-5.9 7.485q-2.3-2.444-5.038-5.038-16.987-16.194-29.654-16.194a31.346 31.346 0 0 0-15.482 3.956 83.847 83.847 0 0 1 10.652-.574q18.425 0 34.116 17.994 2.159 2.518 4.1 5.11a32.382 32.382 0 0 1 5.184-4.536q7.916-5.4 23.966-5.4a40.118 40.118 0 0 1 12.885 2.159q2.639-8.518 11.156-19.073 1.73-2.125 3.669-4.319 16.844-18.857 30.949-18.856 14.324 0 22.1 15.547a52.485 52.485 0 0 1 3.523 9.429q2.736-1.222 5.325-2.087a30.438 30.438 0 0 1 8.782-1.8q14.683 0 23.464 5.472a43.628 43.628 0 0 1 6.91 5.47q2.8-9.717 13.819-17.634 13.6-9.861 25.335-9.862 19.144 0 26.991 15.115.432.866.862 1.657 1.3-.937 2.879-1.871a49.068 49.068 0 0 1 25.911-7.7q16.628 0 24.977 12.236a37.617 37.617 0 0 1 6.19 17.922 37.152 37.152 0 0 1 8.492-6.766q8.35-4.748 19.721-4.75 7.775 0 15.044 5.9a32.737 32.737 0 0 1 5.758 5.758 50.3 50.3 0 0 1 7.268-8.782q12.524-12.234 28.935-12.236 13.45 0 21.017 9.429a28.277 28.277 0 0 1 2.015 2.807 40.238 40.238 0 0 1 5.613 16.844 33.42 33.42 0 0 1 10.8-7.055 46.284 46.284 0 0 1 17.419-2.951q14.683 0 24.615 14.107 1.511 2.159 2.807 4.319a33.933 33.933 0 0 1 2.087-6.764 55.68 55.68 0 0 1 7.557-13.1 44.97 44.97 0 0 1 11.516-10.8 34.259 34.259 0 0 0-16.194 6.335 26.349 26.349 0 0 0-9.573 12.668 31.712 31.712 0 0 0-10.22-8.061q-14.467-7.2-33.4 1.152a35.221 35.221 0 0 0-7.269-15.26q-1.129-1.388-2.375-2.662-9.209-9.285-23.392-9.286-16.407 0-31.378 11.948z" class="cls-3" data-name="Path 878" transform="translate(42.19 131.77)"/>
                        <path id="Path_879" d="M737.13 197.381q-12.165 1.008-26.344 13.89-15.044 13.75-16.481 28.79c-.24-.288-.505-.574-.793-.862a26.513 26.513 0 0 0-19.433-7.775q-10.146 0-18.64 7.7a39.519 39.519 0 0 0-3.167 3.239 25.108 25.108 0 0 0-3.311-4.752 24.841 24.841 0 0 0-19.649-8.78 43.251 43.251 0 0 0-6.262.43 44.97 44.97 0 0 0-11.516 10.8 55.68 55.68 0 0 0-7.557 13.1 33.933 33.933 0 0 0-2.087 6.764q-1.3-2.159-2.807-4.319-9.933-14.106-24.616-14.106a46.284 46.284 0 0 0-17.419 2.951 33.42 33.42 0 0 0-10.8 7.055 40.238 40.238 0 0 0-5.613-16.844 28.277 28.277 0 0 0-2.015-2.807q-7.564-9.427-21.017-9.429-16.412 0-28.935 12.236a50.3 50.3 0 0 0-7.268 8.782 32.737 32.737 0 0 0-5.758-5.758q-7.272-5.9-15.044-5.9-11.371 0-19.721 4.75a37.152 37.152 0 0 0-8.492 6.766 37.617 37.617 0 0 0-6.19-17.922q-8.35-12.234-24.977-12.236a49.068 49.068 0 0 0-25.911 7.7q-1.583.935-2.879 1.871-.43-.792-.862-1.657-7.847-15.115-26.991-15.115-11.733 0-25.335 9.862-11.012 7.918-13.819 17.634a43.628 43.628 0 0 0-6.91-5.47q-8.782-5.469-23.464-5.472a30.438 30.438 0 0 0-8.782 1.8q-2.589.866-5.325 2.087a52.484 52.484 0 0 0-3.527-9.427q-7.775-15.549-22.1-15.547-14.106 0-30.949 18.856-1.939 2.194-3.669 4.319-8.518 10.554-11.156 19.073a40.118 40.118 0 0 0-12.879-2.158q-16.048 0-23.966 5.4a32.382 32.382 0 0 0-5.184 4.536q-1.941-2.591-4.1-5.11-15.691-18-34.116-17.994a83.847 83.847 0 0 0-10.652.574 37.3 37.3 0 0 0-8.133 6.118q-8.853 8.71-14.395 24.041-11.086-2.952-29.942 2.23-.218-2.231-.576-4.533a60.041 60.041 0 0 0-6.767-19.579q-11.877-21.665-32.245-21.664-5.83 0-15.834 4.966V695.59h746.38z" class="cls-4" data-name="Path 879" transform="translate(9.25 135.99)"/>
                        <path id="Path_880" d="M737.13 169.228a60.375 60.375 0 0 0-14.611 9.933q-13.444 12.336-13.893 26.125c-.4-.105-.809-.2-1.222-.288q-7.6-1.581-19 1.08a73.881 73.881 0 0 0-6.046-21.087q-11.155-24.76-36.49-24.759-25.265 0-43.114 17.994-15.976 16.05-15.977 33.684 0 2.367.214 5.253h-.214a50.048 50.048 0 0 0-23.824 6.407 57.972 57.972 0 0 0-18.929 16.194q1.244 1.272 2.375 2.662a35.221 35.221 0 0 1 7.269 15.26q18.928-8.35 33.4-1.152a31.712 31.712 0 0 1 10.22 8.061 26.349 26.349 0 0 1 9.573-12.668 34.259 34.259 0 0 1 16.194-6.335 43.251 43.251 0 0 1 6.262-.43 24.841 24.841 0 0 1 19.649 8.78 25.108 25.108 0 0 1 3.311 4.752 39.521 39.521 0 0 1 3.167-3.239q8.492-7.7 18.64-7.7a26.513 26.513 0 0 1 19.433 7.775c.288.288.553.574.793.862q1.438-15.041 16.481-28.79 14.182-12.882 26.344-13.89v-44.48M57.181 186a67.154 67.154 0 0 0-23.462 22.384q-.777-1.116-1.655-2.231-12.021-15.261-30.014-15.262a24.282 24.282 0 0 0-11.3 3.1v42.825q10-4.966 15.834-4.966 20.368 0 32.243 21.663a60.041 60.041 0 0 1 6.767 19.579q.361 2.3.576 4.533 18.857-5.18 29.942-2.23 5.541-15.331 14.395-24.041a37.3 37.3 0 0 1 8.133-6.118 31.346 31.346 0 0 1 15.475-3.959q12.666 0 29.654 16.194 2.734 2.593 5.038 5.038a29.145 29.145 0 0 1 5.9-7.485q5.184-4.39 17.347-4.39a43.868 43.868 0 0 1 10.148 1.009q2.025-10.14 10-20.945-1.252-1.1-2.663-2.159-9.574-7.2-20.082-7.2a31.8 31.8 0 0 0-14.035 2.807 57.893 57.893 0 0 0 .289-5.9q0-15.186-7.269-26.271-11.876-17.993-40.09-17.994-30.369-.004-51.171 12.019z" class="cls-5" data-name="Path 880" transform="translate(9.25 119.662)"/>
                        <path id="Path_881" d="M737.13-34.207H-9.25v313.649a24.282 24.282 0 0 1 11.3-3.1q17.993 0 30.014 15.26.877 1.116 1.655 2.231a67.154 67.154 0 0 1 23.462-22.384q20.8-12.021 51.176-12.021 28.215 0 40.09 17.994 7.268 11.086 7.269 26.271a57.893 57.893 0 0 1-.289 5.9 31.8 31.8 0 0 1 14.035-2.807q10.511 0 20.082 7.2 1.412 1.056 2.663 2.159a107.421 107.421 0 0 1 9.357-10.724 81.493 81.493 0 0 1 18.426-14.391q10.148-5.685 18.208-5.687 17.131 0 25.191 21.018a77.643 77.643 0 0 1 4.032 14.322l3.239-.646a72.887 72.887 0 0 1 8.923-1.368q13.605 0 22.386 7.629a40.974 40.974 0 0 1 18.21-20.8 49.2 49.2 0 0 1 24.9-6.838q16.412 0 26.128 10.366a33.574 33.574 0 0 1 4.534 5.9 24.265 24.265 0 0 1 8.2-4.75q2.954-.933 13.749-.934 19.72 0 30.516 11.8A39.857 39.857 0 0 1 435.987 334a23.7 23.7 0 0 1 4.031-3.311q6.117-3.958 19.216-3.959 14.4 0 22.312 8.494a53.728 53.728 0 0 1 7.7-7.343q14.968-11.947 31.381-11.948 14.182 0 23.392 9.286a57.972 57.972 0 0 1 18.929-16.194 50.048 50.048 0 0 1 23.824-6.407h.214q-.214-2.887-.214-5.253 0-17.635 15.977-33.684 17.85-17.993 43.114-17.994 25.334 0 36.49 24.759a73.881 73.881 0 0 1 6.046 21.087q11.4-2.66 19-1.08c.413.088.821.183 1.222.288q.449-13.789 13.893-26.125a60.375 60.375 0 0 1 14.611-9.933z" class="cls-6" data-name="Path 881" transform="translate(9.25 34.207)"/>
                    </g>
                </g>
            </g>
            <g id="Group_455" data-name="Group 455" transform="translate(-4.844 570.896)">
                <g id="Group_454" data-name="Group 454">
                    <g id="Layer0_1_FILL" data-name="Layer0 1 FILL">
                        <path id="Path_882" d="M747.765 429.911a26.683 26.683 0 0 0-5.615-.576q-17.777 0-29.724 9.429-1.518 1.2-2.951 2.519a55.953 55.953 0 0 0-2.159-12.308q-4.679-15.186-17.49-15.185-9.79 0-19.651 8.42-9 7.717-15.906 20.945a22.172 22.172 0 0 0-2.95-3.6q-6.929-6.821-17.706-2.086-.92-9.671-4.246-14.972-6.046-9.643-21.162-9.645a41.464 41.464 0 0 0-19.936 4.606 29.485 29.485 0 0 0-13.533 15.042.062.062 0 0 1-.07 0q-5.614-4.968-15.115-4.968-12.165 0-21.162 4.822-13.169 6.981-18.208 23.608l227.585 96.376V429.911M66.091 397.666Q52.7 386.151 38.956 386.15a73.773 73.773 0 0 0-35.7 9.357A54.166 54.166 0 0 0-12.65 408.1v142.44l262.133-90.906q2.086-14.754-7.557-29.942-10.652-16.84-26.775-16.842-21.843 0-29.8 23.176A7.978 7.978 0 0 0 177.94 432a14.812 14.812 0 0 0-4.534.505q-.829.259-1.943.72-2.844-7.436-7.917-11.086a13.085 13.085 0 0 0-7.629-2.879q-5.759 0-13.891 7.557a62.287 62.287 0 0 0-5.256 5.4q.745-9.926-7.052-18.857-8.637-9.788-20.585-9.789-19.725 0-28.863 10.942a63.967 63.967 0 0 0-14.179-16.847z" class="cls-7" data-name="Path 882" transform="translate(12.65 -386.15)"/>
                    </g>
                </g>
            </g>
            <g id="Group_457" data-name="Group 457" transform="translate(562.862 367.955)">
                <g id="Group_456" data-name="Group 456">
                    <g id="Layer0_10_FILL" data-name="Layer0 10 FILL">
                        <path id="Path_883" d="M542.412 254.728q-11.032-.233-18.4 6.77a24.1 24.1 0 0 0-6.574 10.5 42.836 42.836 0 0 0-5.41-.449 64.006 64.006 0 0 0-36.4 10.272 60.477 60.477 0 0 0-11.158 8.862 24.849 24.849 0 0 0-6.391-4.549q-5.953-3.269-10.366-3.363-17.183-.361-28.807 11.7-6.5 6.618-8.7 12.993a15.694 15.694 0 0 0-2.646-1.46 30.286 30.286 0 0 0-11.2-1.974 33.184 33.184 0 0 0-7.17.584 19.117 19.117 0 0 0-7.459 7.937q2.293 2.321 17.661 3.114 3.543.14 33.163.7 76.275 8.628 106.854 20.912 22.29 8.829 43.732 19.717l1.945-92.4q-5.357-2.788-8.366-2.85a29.392 29.392 0 0 0-10.537 1.582 26.844 26.844 0 0 0-4.321 1.916q-5.675-10.224-19.45-10.514z" class="cls-8" data-name="Path 883" transform="translate(-381.727 -240.972)"/>
                        <path id="Path_884" d="M470.157 256.249q-11.7-.246-22.616 9.825a36.231 36.231 0 0 0-10.079 14.9 23.364 23.364 0 0 0-5.4-.648q-10.164-.216-18.762 11.11a53.188 53.188 0 0 0-8 14.749q-1.129-.494-2.191-.849a18.459 18.459 0 0 0-3.338-.272 23.386 23.386 0 0 0-11.231 2.842l-1.624.9a33.184 33.184 0 0 1 7.17-.584 30.286 30.286 0 0 1 11.2 1.974 15.7 15.7 0 0 1 2.646 1.46q2.207-6.374 8.7-12.993 11.625-12.064 28.807-11.7 4.413.093 10.366 3.363a24.848 24.848 0 0 1 6.391 4.549 60.477 60.477 0 0 1 11.158-8.862 64.006 64.006 0 0 1 36.4-10.272 42.831 42.831 0 0 1 5.41.449 24.1 24.1 0 0 1 6.574-10.5q7.372-7 18.4-6.77 13.774.287 19.445 10.507a26.846 26.846 0 0 1 4.321-1.916 29.391 29.391 0 0 1 10.537-1.582q3.008.063 8.366 2.85l.083-3.943a20.768 20.768 0 0 0-8.78-2.392 33.625 33.625 0 0 0-14.5 2.7 54.039 54.039 0 0 0-3.255-7.493q-6.3-12.308-14.988-12.491-6.083-.13-17.966 8.25-13.037 9.16-13.632 18.443-5.312-1.919-16.721 3.127-.665-9.781-7.922-14.548-5.877-3.992-14.969-4.183z" class="cls-7" data-name="Path 884" transform="translate(-379.449 -245.17)"/>
                    </g>
                </g>
            </g>
            <g id="Group_459" data-name="Group 459" transform="translate(-30.412 448.034)">
                <g id="Group_458" data-name="Group 458">
                    <g id="Layer0_11_FILL" data-name="Layer0 11 FILL">
                        <path id="Path_885" d="M65.241 319.464a16.649 16.649 0 0 0-4.76 5.289c-.081-.069-.177-.148-.286-.239a26.664 26.664 0 0 0-16.4-6.168 39.588 39.588 0 0 0-14.854 2.6 27.368 27.368 0 0 0-8.887 5.094 28.588 28.588 0 0 0-1.378-4q-5.962-13.387-20.356-13.87a47.245 47.245 0 0 0-14.051 2.168l-.744.206q-11.552 10.442-12.675 31.116l-1.261 41.764q47.941-16.811 107.58-28.467 63.08-12.4 91.181-8.365 1.49-5.223-3.556-7.287a10.348 10.348 0 0 0-4.244-.772 13.987 13.987 0 0 0-4.128.952 26.232 26.232 0 0 0-3.671-3.276 22.245 22.245 0 0 0-7.57-3.753 28.894 28.894 0 0 0-9.232 2.329 55.077 55.077 0 0 0-11.643 7.182 10.1 10.1 0 0 0 .058-1.144 32.931 32.931 0 0 0-1.09-8.984q-1.889-6.37-6.478-6.524a11.731 11.731 0 0 0-6.769 1.953 16.222 16.222 0 0 0-3.728 3.315 10.8 10.8 0 0 0-1.375-2.224q-3.671-4.424-11.814-4.7a16.961 16.961 0 0 0-4.988.521 15.078 15.078 0 0 0-1.2-3.767q-2.466-5.187-8.66-5.394a20.293 20.293 0 0 0-13.021 4.445z" class="cls-8" data-name="Path 885" transform="translate(30.412 -297.568)"/>
                        <path id="Path_886" d="M85.3 311.751q-3.325-10.66-11.813-10.945-7.4-.248-15.083 9.014a43.412 43.412 0 0 0-7.455 12.653q-.5-.633-1.031-1.18-4.532-4.623-12.1-4.877a25.408 25.408 0 0 0-16.744 5.231 24.9 24.9 0 0 0-1.951 1.657q-.471-1.445-.975-2.672Q12.3 306.56-1.75 306.09q-9.749-.328-18.466 7.239l-.515.442c.249-.068.5-.137.744-.206A47.245 47.245 0 0 1-5.936 311.4q14.394.482 20.356 13.87a28.588 28.588 0 0 1 1.378 4 27.368 27.368 0 0 1 8.887-5.094 39.588 39.588 0 0 1 14.854-2.6 26.664 26.664 0 0 1 16.4 6.168c.109.091.206.17.286.239a16.649 16.649 0 0 1 4.76-5.289A20.293 20.293 0 0 1 74 318.256q6.193.207 8.66 5.394a15.078 15.078 0 0 1 1.2 3.767 16.961 16.961 0 0 1 4.988-.521q8.143.272 11.814 4.7a10.8 10.8 0 0 1 1.375 2.224 16.222 16.222 0 0 1 3.728-3.315 11.731 11.731 0 0 1 6.769-1.953q4.586.155 6.478 6.524a32.931 32.931 0 0 1 1.09 8.984 10.1 10.1 0 0 1-.058 1.144 55.078 55.078 0 0 1 11.643-7.182 28.9 28.9 0 0 1 9.232-2.329 16.492 16.492 0 0 0-3.842-.586 20.287 20.287 0 0 0-10.265 2.181 13.364 13.364 0 0 0-4.128 3.129v-.63a45.223 45.223 0 0 0-1.605-12.728q-2.293-7.933-7.4-8.1-6.072-.2-12.845 6.509a8.02 8.02 0 0 0-1.09-1.127q-4.016-3.36-12.732-1.284a37.411 37.411 0 0 0-1.712-11.306z" class="cls-7" data-name="Path 886" transform="translate(34.667 -300.799)"/>
                    </g>
                </g>
            </g>
        </g>
    </g>
</svg>
