<svg xmlns="http://www.w3.org/2000/svg" viewBox="0 0 745 552" width="745" height="552">
	<style>
		tspan { white-space:pre }
		.shp0 { fill: #e9fdff } 
		.shp1 { fill: #d0fbff } 
		.shp2 { fill: #b8f1f5 } 
		.shp3 { fill: #ffffff } 
		.shp4 { fill: #bff3f7 } 
	</style>
	<g id="Group_460">
		<g id="Group_453">
			<g id="Group_452">
				<g id="Layer0_0_FILL">
					<path id="Path_878" class="shp0" d="M497.96 82.19C497.26 82.74 496.57 83.3 495.9 83.88C495.23 84.46 494.57 85.06 493.93 85.67C493.29 86.29 492.66 86.92 492.05 87.56C491.44 88.2 490.84 88.86 490.26 89.54C484.98 83.87 477.55 81.04 467.95 81.04C459.22 81.04 452.81 82.36 448.73 85C448.37 85.24 448.01 85.49 447.66 85.75C447.31 86 446.96 86.27 446.63 86.55C446.29 86.82 445.96 87.11 445.64 87.4C445.32 87.7 445.01 88 444.7 88.31C444.27 87.12 443.78 85.95 443.23 84.81C442.69 83.67 442.09 82.55 441.43 81.46C440.78 80.38 440.08 79.32 439.33 78.3C438.57 77.28 437.77 76.3 436.93 75.36C429.73 67.49 419.55 63.56 406.41 63.56C399.21 63.56 394.63 63.87 392.66 64.49C391.91 64.75 391.17 65.04 390.45 65.37C389.72 65.7 389.02 66.06 388.33 66.46C387.64 66.86 386.97 67.29 386.33 67.76C385.68 68.22 385.06 68.72 384.46 69.24C384.14 68.71 383.8 68.19 383.45 67.67C383.1 67.16 382.74 66.66 382.36 66.17C381.98 65.67 381.59 65.19 381.18 64.72C380.78 64.25 380.36 63.79 379.93 63.34C373.45 56.43 364.73 52.98 353.79 52.98C351.62 52.98 349.44 53.13 347.28 53.43C345.12 53.72 342.99 54.16 340.89 54.73C338.79 55.31 336.73 56.03 334.72 56.88C332.72 57.73 330.77 58.71 328.89 59.81C326.84 60.96 324.89 62.28 323.06 63.75C321.23 65.23 319.53 66.86 317.98 68.63C316.43 70.4 315.04 72.3 313.82 74.31C312.59 76.32 311.55 78.43 310.68 80.61C304.83 75.53 297.37 72.98 288.3 72.99C287.55 73.05 286.8 73.13 286.05 73.22C285.31 73.32 284.56 73.42 283.82 73.53C283.07 73.65 282.33 73.77 281.59 73.91C280.85 74.05 280.11 74.19 279.38 74.35L276.14 75C275.92 73.78 275.67 72.56 275.39 71.35C275.11 70.14 274.8 68.94 274.46 67.74C274.13 66.55 273.76 65.36 273.37 64.18C272.98 63 272.55 61.84 272.1 60.68C266.73 46.67 258.33 39.66 246.91 39.66C241.54 39.66 235.47 41.56 228.7 45.35C227.01 46.32 225.34 47.35 223.72 48.44C222.1 49.53 220.51 50.68 218.97 51.88C217.43 53.08 215.93 54.34 214.48 55.65C213.03 56.97 211.63 58.33 210.28 59.74C209.44 60.58 208.62 61.44 207.81 62.31C207 63.17 206.2 64.05 205.42 64.95C204.64 65.84 203.88 66.75 203.13 67.67C202.38 68.59 201.64 69.52 200.92 70.47C195.6 77.67 192.27 84.65 190.92 91.41C190.09 91.23 189.25 91.07 188.41 90.94C187.57 90.8 186.73 90.69 185.88 90.61C185.03 90.53 184.18 90.47 183.33 90.43C182.48 90.4 181.63 90.39 180.77 90.4C172.66 90.4 166.88 91.87 163.43 94.79C162.84 95.33 162.27 95.89 161.73 96.47C161.18 97.06 160.66 97.67 160.17 98.29C159.68 98.92 159.21 99.57 158.77 100.23C158.33 100.9 157.91 101.58 157.53 102.28C155.99 100.65 154.31 98.97 152.49 97.24C141.16 86.44 131.28 81.04 122.83 81.04C121.49 81.03 120.14 81.11 118.8 81.27C117.47 81.44 116.14 81.69 114.84 82.02C113.53 82.35 112.25 82.77 111 83.27C109.75 83.77 108.53 84.35 107.35 85C108.24 84.9 109.12 84.81 110.01 84.73C110.89 84.65 111.78 84.59 112.67 84.54C113.56 84.5 114.45 84.46 115.34 84.44C116.23 84.42 117.12 84.42 118 84.43C130.29 84.43 141.66 90.42 152.12 102.42C153.56 104.1 154.93 105.8 156.22 107.53C156.61 107.11 157.01 106.7 157.42 106.29C157.84 105.89 158.26 105.5 158.69 105.12C159.12 104.75 159.57 104.38 160.02 104.02C160.47 103.67 160.93 103.33 161.4 102.99C166.68 99.39 174.67 97.59 185.37 97.59C186.46 97.6 187.56 97.65 188.65 97.74C189.74 97.83 190.82 97.97 191.9 98.15C192.98 98.33 194.05 98.55 195.11 98.82C196.17 99.09 197.22 99.4 198.26 99.75C200.02 94.08 203.73 87.72 209.41 80.68C210.57 79.26 211.79 77.82 213.08 76.36C224.31 63.79 234.63 57.51 244.03 57.51C253.58 57.51 260.95 62.69 266.13 73.05C266.5 73.81 266.85 74.57 267.18 75.34C267.51 76.12 267.82 76.9 268.12 77.68C268.41 78.47 268.69 79.26 268.94 80.06C269.2 80.86 269.44 81.67 269.65 82.48C271.48 81.67 273.25 80.97 274.98 80.39C275.68 80.14 276.4 79.91 277.12 79.7C277.84 79.5 278.57 79.32 279.3 79.17C280.04 79.02 280.78 78.9 281.52 78.8C282.26 78.7 283.01 78.64 283.76 78.59C293.55 78.59 301.37 80.42 307.22 84.07C307.84 84.46 308.45 84.87 309.05 85.3C309.65 85.73 310.24 86.17 310.82 86.63C311.39 87.08 311.96 87.55 312.51 88.04C313.07 88.53 313.61 89.02 314.13 89.54C316 83.06 320.61 77.18 327.95 71.9C337.02 65.33 345.46 62.04 353.29 62.04C366.05 62.04 375.05 67.08 380.28 77.16C380.57 77.73 380.85 78.29 381.14 78.81C382.01 78.19 382.97 77.56 384.02 76.94C385.94 75.71 387.95 74.62 390.03 73.67C392.11 72.73 394.25 71.92 396.43 71.27C398.62 70.62 400.85 70.13 403.11 69.79C405.37 69.45 407.65 69.26 409.93 69.24C421.02 69.24 429.34 73.32 434.91 81.48C435.79 82.81 436.59 84.19 437.3 85.62C438.01 87.06 438.63 88.53 439.15 90.04C439.67 91.55 440.1 93.09 440.42 94.66C440.75 96.22 440.97 97.81 441.1 99.4C441.72 98.74 442.36 98.1 443.03 97.48C443.7 96.86 444.39 96.27 445.1 95.71C445.81 95.14 446.54 94.6 447.29 94.09C448.04 93.57 448.8 93.09 449.59 92.63C455.16 89.47 461.73 87.89 469.31 87.88C474.49 87.88 479.51 89.85 484.36 93.78C484.89 94.2 485.42 94.64 485.93 95.09C486.44 95.54 486.93 96 487.41 96.48C487.89 96.96 488.36 97.46 488.81 97.97C489.26 98.48 489.7 99 490.11 99.54C490.63 98.74 491.18 97.96 491.74 97.2C492.3 96.43 492.89 95.68 493.5 94.94C494.1 94.21 494.73 93.49 495.38 92.8C496.03 92.1 496.69 91.42 497.38 90.76C505.73 82.6 515.38 78.53 526.32 78.52C535.28 78.52 542.29 81.67 547.33 87.95C547.52 88.18 547.69 88.4 547.87 88.63C548.04 88.86 548.22 89.09 548.38 89.33C548.55 89.56 548.72 89.8 548.88 90.04C549.04 90.27 549.19 90.52 549.35 90.76C550.12 92.04 550.82 93.36 551.45 94.71C552.07 96.06 552.62 97.45 553.1 98.87C553.57 100.28 553.96 101.73 554.27 103.18C554.58 104.64 554.81 106.12 554.96 107.6C555.74 106.85 556.55 106.13 557.39 105.45C558.23 104.78 559.11 104.14 560.02 103.55C560.92 102.96 561.86 102.41 562.82 101.91C563.78 101.41 564.76 100.95 565.76 100.55C567.15 100.03 568.56 99.57 569.99 99.19C571.42 98.8 572.87 98.48 574.33 98.23C575.79 97.99 577.26 97.81 578.74 97.7C580.22 97.6 581.7 97.56 583.18 97.6C592.97 97.6 601.17 102.3 607.79 111.7C608.8 113.14 609.74 114.58 610.6 116.02C610.72 115.44 610.85 114.87 610.99 114.29C611.13 113.72 611.29 113.15 611.47 112.59C611.64 112.02 611.83 111.46 612.04 110.91C612.24 110.35 612.46 109.8 612.69 109.26C613.17 108.09 613.68 106.93 614.24 105.8C614.79 104.66 615.39 103.55 616.02 102.45C616.65 101.36 617.32 100.28 618.03 99.23C618.73 98.18 619.47 97.16 620.25 96.16C621.04 95.1 621.87 94.08 622.76 93.09C623.64 92.1 624.56 91.16 625.53 90.25C626.49 89.35 627.5 88.48 628.54 87.67C629.58 86.85 630.65 86.08 631.76 85.36C630.31 85.53 628.86 85.79 627.44 86.15C626.02 86.5 624.62 86.95 623.26 87.48C621.89 88.02 620.56 88.64 619.28 89.34C617.99 90.05 616.75 90.83 615.57 91.69C614.47 92.47 613.44 93.34 612.47 94.27C611.51 95.21 610.62 96.22 609.8 97.29C608.99 98.36 608.27 99.5 607.63 100.68C606.99 101.86 606.44 103.1 606 104.36C605.29 103.52 604.55 102.72 603.77 101.96C602.98 101.2 602.16 100.48 601.3 99.8C600.45 99.13 599.55 98.49 598.63 97.91C597.71 97.32 596.75 96.79 595.77 96.3C586.13 91.5 575 91.89 562.38 97.45C562.09 96.06 561.72 94.68 561.27 93.34C560.81 91.99 560.28 90.67 559.67 89.38C559.06 88.1 558.37 86.85 557.61 85.65C556.84 84.45 556.01 83.29 555.11 82.19C554.35 81.27 553.56 80.38 552.73 79.53C546.59 73.34 538.79 70.25 529.34 70.25C518.4 70.25 507.94 74.23 497.96 82.19L497.96 82.19Z" />
					<path id="Path_879" class="shp1" d="M745.84 53.48C737.73 54.15 728.95 58.78 719.5 67.37C709.47 76.53 703.98 86.13 703.02 96.16C702.78 95.87 702.51 95.58 702.22 95.3C700.96 94.03 699.56 92.89 698.07 91.9C696.57 90.91 694.97 90.08 693.31 89.41C691.64 88.74 689.91 88.25 688.15 87.93C686.38 87.61 684.59 87.48 682.79 87.52C676.03 87.52 669.81 90.09 664.15 95.22C663.87 95.48 663.6 95.73 663.33 96C663.05 96.26 662.79 96.53 662.52 96.8C662.26 97.07 662 97.34 661.74 97.62C661.49 97.89 661.23 98.18 660.98 98.46C660.76 98.03 660.51 97.61 660.26 97.2C660.01 96.79 659.74 96.39 659.47 95.99C659.19 95.59 658.9 95.2 658.6 94.82C658.3 94.44 657.99 94.07 657.67 93.71C656.47 92.29 655.12 91.01 653.63 89.9C652.15 88.78 650.54 87.84 648.85 87.08C647.15 86.32 645.38 85.76 643.56 85.4C641.74 85.03 639.88 84.88 638.02 84.93C637.5 84.93 636.98 84.93 636.45 84.95C635.93 84.97 635.41 84.99 634.89 85.03C634.36 85.07 633.84 85.11 633.32 85.17C632.8 85.22 632.28 85.28 631.76 85.36C630.65 86.08 629.58 86.85 628.54 87.67C627.5 88.48 626.49 89.34 625.53 90.25C624.56 91.15 623.64 92.1 622.76 93.09C621.88 94.07 621.04 95.1 620.25 96.16C619.47 97.16 618.73 98.18 618.03 99.23C617.32 100.28 616.65 101.36 616.02 102.45C615.39 103.55 614.8 104.66 614.24 105.8C613.68 106.93 613.17 108.09 612.69 109.26C612.46 109.8 612.24 110.35 612.04 110.91C611.83 111.46 611.64 112.02 611.47 112.59C611.3 113.15 611.14 113.72 610.99 114.29C610.85 114.87 610.72 115.44 610.6 116.02C609.74 114.58 608.8 113.14 607.8 111.7C601.17 102.3 592.97 97.6 583.18 97.6C581.7 97.56 580.22 97.6 578.74 97.7C577.26 97.81 575.79 97.99 574.33 98.23C572.87 98.48 571.42 98.8 569.99 99.19C568.56 99.57 567.15 100.03 565.76 100.55C564.76 100.95 563.78 101.41 562.82 101.91C561.86 102.41 560.92 102.96 560.02 103.55C559.11 104.14 558.23 104.78 557.39 105.45C556.55 106.13 555.74 106.85 554.96 107.6C554.81 106.12 554.58 104.64 554.27 103.18C553.96 101.72 553.57 100.28 553.1 98.87C552.62 97.45 552.07 96.06 551.45 94.71C550.82 93.35 550.12 92.04 549.35 90.76C549.19 90.52 549.04 90.27 548.88 90.03C548.72 89.8 548.55 89.56 548.38 89.32C548.22 89.09 548.04 88.86 547.87 88.63C547.69 88.4 547.52 88.18 547.33 87.95C542.29 81.67 535.28 78.52 526.32 78.52C515.37 78.52 505.73 82.6 497.38 90.76C496.69 91.42 496.03 92.1 495.38 92.8C494.73 93.49 494.1 94.21 493.5 94.94C492.89 95.68 492.3 96.43 491.74 97.19C491.18 97.96 490.63 98.74 490.11 99.54C489.7 99 489.26 98.48 488.81 97.97C488.36 97.46 487.89 96.96 487.41 96.48C486.93 96 486.44 95.54 485.93 95.08C485.42 94.63 484.89 94.2 484.35 93.78C479.51 89.85 474.49 87.88 469.31 87.88C461.73 87.88 455.16 89.47 449.59 92.63C448.8 93.09 448.04 93.57 447.29 94.09C446.54 94.6 445.81 95.14 445.1 95.7C444.39 96.27 443.7 96.86 443.03 97.48C442.36 98.09 441.72 98.74 441.1 99.4C440.97 97.81 440.75 96.22 440.42 94.66C440.1 93.09 439.67 91.55 439.15 90.04C438.63 88.53 438.01 87.06 437.3 85.62C436.59 84.19 435.79 82.81 434.91 81.48C429.34 73.32 421.02 69.24 409.93 69.24C407.65 69.26 405.37 69.45 403.11 69.78C400.85 70.12 398.62 70.62 396.43 71.27C394.25 71.92 392.11 72.72 390.03 73.67C387.95 74.62 385.94 75.71 384.02 76.94C382.96 77.56 382 78.19 381.14 78.81C380.85 78.28 380.57 77.73 380.28 77.16C375.05 67.08 366.05 62.04 353.29 62.04C345.47 62.04 337.02 65.33 327.95 71.9C320.61 77.18 316.01 83.06 314.13 89.54C313.61 89.02 313.07 88.52 312.51 88.04C311.96 87.55 311.39 87.08 310.82 86.63C310.24 86.17 309.65 85.73 309.05 85.3C308.45 84.87 307.84 84.46 307.22 84.07C301.37 80.42 293.55 78.6 283.76 78.59C283.01 78.63 282.26 78.7 281.52 78.8C280.78 78.89 280.04 79.02 279.3 79.17C278.57 79.32 277.84 79.5 277.12 79.7C276.4 79.91 275.68 80.14 274.98 80.39C273.25 80.97 271.48 81.67 269.65 82.48C269.44 81.67 269.2 80.86 268.94 80.06C268.69 79.26 268.41 78.47 268.12 77.68C267.82 76.9 267.51 76.12 267.18 75.34C266.84 74.57 266.49 73.81 266.13 73.05C260.94 62.69 253.58 57.51 244.03 57.51C234.62 57.51 224.31 63.79 213.08 76.36C211.78 77.83 210.56 79.27 209.41 80.68C203.73 87.72 200.01 94.08 198.25 99.75C197.22 99.4 196.17 99.09 195.11 98.82C194.05 98.55 192.98 98.33 191.9 98.15C190.82 97.97 189.74 97.83 188.65 97.74C187.56 97.65 186.47 97.6 185.37 97.6C174.67 97.6 166.69 99.4 161.41 103C160.94 103.33 160.47 103.67 160.02 104.03C159.57 104.38 159.13 104.75 158.69 105.13C158.26 105.51 157.84 105.9 157.43 106.3C157.01 106.7 156.61 107.11 156.22 107.53C154.93 105.81 153.56 104.1 152.12 102.42C141.66 90.42 130.29 84.43 118.01 84.43C117.12 84.42 116.23 84.43 115.34 84.45C114.45 84.46 113.56 84.5 112.67 84.55C111.78 84.59 110.9 84.66 110.01 84.73C109.12 84.81 108.24 84.9 107.36 85C106.61 85.42 105.88 85.86 105.17 86.32C104.46 86.78 103.76 87.27 103.08 87.78C102.4 88.29 101.74 88.83 101.09 89.39C100.45 89.94 99.83 90.52 99.22 91.12C93.32 96.93 88.52 104.94 84.83 115.16C77.44 113.19 67.46 113.94 54.88 117.39C54.74 115.9 54.55 114.39 54.31 112.86C54.03 111.15 53.68 109.45 53.26 107.76C52.84 106.08 52.34 104.42 51.78 102.78C51.21 101.14 50.57 99.52 49.87 97.94C49.16 96.35 48.38 94.8 47.54 93.28C39.62 78.84 28.88 71.62 15.3 71.62C11.41 71.62 6.13 73.27 -0.54 76.58L-0.54 551.69L745.84 551.69L745.84 53.48Z" />
					<path id="Path_880" class="shp2" d="M745.84 9C744.51 9.64 743.21 10.33 741.93 11.07C740.65 11.81 739.39 12.6 738.17 13.43C736.95 14.26 735.76 15.13 734.6 16.05C733.44 16.97 732.32 17.93 731.23 18.93C722.27 27.15 717.64 35.86 717.34 45.05C716.94 44.95 716.53 44.85 716.12 44.77C711.05 43.71 704.72 44.07 697.12 45.85C696.88 44.03 696.57 42.22 696.2 40.42C695.83 38.62 695.39 36.84 694.88 35.08C694.38 33.31 693.8 31.57 693.17 29.85C692.53 28.13 691.83 26.43 691.07 24.76C683.63 8.25 671.47 0 654.58 0C637.74 0 623.37 6 611.47 18C600.82 28.7 595.49 39.92 595.49 51.68C595.49 53.26 595.56 55.01 595.7 56.93L595.49 56.93C593.41 56.96 591.34 57.12 589.28 57.4C587.22 57.69 585.18 58.1 583.18 58.64C581.17 59.18 579.2 59.85 577.28 60.63C575.35 61.42 573.48 62.32 571.67 63.34C569.82 64.33 568.03 65.41 566.3 66.59C564.57 67.77 562.91 69.05 561.32 70.41C559.73 71.77 558.22 73.21 556.78 74.74C555.35 76.26 554 77.86 552.74 79.53C553.57 80.38 554.36 81.27 555.11 82.19C556.01 83.3 556.85 84.45 557.61 85.65C558.37 86.85 559.06 88.1 559.68 89.38C560.29 90.67 560.82 91.99 561.27 93.34C561.73 94.69 562.1 96.06 562.38 97.46C575 91.89 586.13 91.5 595.78 96.3C596.76 96.79 597.71 97.33 598.64 97.91C599.56 98.49 600.45 99.13 601.31 99.8C602.17 100.48 602.99 101.2 603.77 101.96C604.56 102.72 605.3 103.53 606 104.36C606.45 103.1 607 101.87 607.63 100.68C608.27 99.5 609 98.36 609.81 97.29C610.62 96.22 611.51 95.21 612.48 94.27C613.44 93.34 614.48 92.47 615.57 91.7C616.76 90.83 618 90.05 619.28 89.34C620.57 88.64 621.9 88.02 623.26 87.48C624.63 86.95 626.03 86.5 627.45 86.15C628.87 85.79 630.31 85.53 631.77 85.36C632.29 85.29 632.81 85.22 633.33 85.17C633.85 85.11 634.37 85.07 634.89 85.03C635.41 85 635.94 84.97 636.46 84.95C636.98 84.94 637.51 84.93 638.03 84.93C639.89 84.88 641.74 85.04 643.56 85.4C645.38 85.76 647.16 86.33 648.85 87.08C650.55 87.84 652.15 88.79 653.64 89.9C655.12 91.02 656.48 92.29 657.68 93.71C658 94.07 658.31 94.44 658.61 94.83C658.91 95.21 659.2 95.59 659.47 95.99C659.75 96.39 660.01 96.79 660.27 97.21C660.52 97.62 660.76 98.04 660.99 98.46C661.24 98.18 661.49 97.9 661.75 97.62C662 97.34 662.26 97.07 662.53 96.8C662.79 96.53 663.06 96.26 663.33 96C663.6 95.74 663.88 95.48 664.16 95.22C669.82 90.09 676.03 87.52 682.8 87.52C684.59 87.48 686.38 87.62 688.15 87.93C689.92 88.25 691.65 88.75 693.31 89.41C694.98 90.08 696.57 90.91 698.07 91.9C699.57 92.89 700.96 94.03 702.23 95.3C702.52 95.59 702.78 95.87 703.02 96.16C703.98 86.13 709.48 76.54 719.5 67.37C728.96 58.78 737.74 54.15 745.85 53.48L745.85 9M65.89 25.77C63.52 27.12 61.23 28.62 59.05 30.25C56.86 31.88 54.77 33.64 52.79 35.52C50.82 37.41 48.96 39.41 47.23 41.52C45.49 43.63 43.89 45.85 42.43 48.15C41.91 47.41 41.36 46.67 40.78 45.92C32.76 35.75 22.76 30.66 10.76 30.66C9.78 30.68 8.79 30.77 7.82 30.91C6.84 31.05 5.87 31.26 4.92 31.52C3.97 31.78 3.04 32.1 2.12 32.47C1.21 32.85 0.32 33.28 -0.54 33.76L-0.54 76.59C6.13 73.27 11.41 71.62 15.3 71.62C28.88 71.62 39.62 78.84 47.54 93.28C48.38 94.8 49.16 96.35 49.86 97.94C50.57 99.52 51.21 101.14 51.77 102.78C52.34 104.42 52.84 106.08 53.26 107.76C53.68 109.45 54.03 111.15 54.31 112.86C54.55 114.39 54.74 115.91 54.88 117.39C67.45 113.94 77.43 113.2 84.82 115.16C88.52 104.94 93.32 96.93 99.22 91.12C99.82 90.52 100.45 89.94 101.09 89.39C101.73 88.83 102.4 88.3 103.08 87.79C103.76 87.27 104.45 86.79 105.17 86.32C105.88 85.86 106.61 85.42 107.35 85.01C108.53 84.35 109.75 83.77 111 83.27C112.25 82.77 113.53 82.36 114.83 82.02C116.14 81.69 117.46 81.44 118.8 81.28C120.14 81.11 121.48 81.04 122.83 81.05C131.27 81.05 141.16 86.44 152.48 97.24C154.3 98.97 155.98 100.65 157.52 102.28C157.9 101.58 158.32 100.9 158.76 100.23C159.2 99.57 159.67 98.92 160.16 98.29C160.66 97.67 161.18 97.06 161.72 96.48C162.26 95.89 162.83 95.33 163.42 94.79C166.88 91.87 172.66 90.4 180.77 90.4C181.62 90.39 182.47 90.4 183.32 90.43C184.17 90.47 185.02 90.53 185.87 90.61C186.72 90.7 187.56 90.8 188.4 90.94C189.25 91.07 190.08 91.23 190.91 91.41C192.26 84.65 195.6 77.67 200.91 70.47C200.08 69.73 199.19 69.01 198.25 68.31C191.87 63.51 185.18 61.11 178.17 61.11C176.97 61.07 175.76 61.11 174.56 61.21C173.36 61.31 172.17 61.48 170.99 61.71C169.81 61.95 168.65 62.25 167.5 62.62C166.36 62.99 165.23 63.42 164.14 63.92C164.18 63.42 164.23 62.93 164.26 62.44C164.3 61.95 164.33 61.46 164.35 60.97C164.38 60.48 164.4 59.98 164.41 59.49C164.42 59 164.43 58.51 164.42 58.02C164.42 47.89 162 39.13 157.15 31.74C149.24 19.75 135.87 13.75 117.06 13.75C96.82 13.75 79.76 17.75 65.89 25.77L65.89 25.77Z" />
				</g>
			</g>
		</g>
		<g id="Group_455">
			<g id="Group_454">
				<g id="Layer0_1_FILL">
					<path id="Path_882" class="shp3" d="M754.98 368.97C754.52 368.87 754.06 368.79 753.59 368.72C753.13 368.64 752.66 368.58 752.19 368.53C751.72 368.49 751.25 368.45 750.78 368.43C750.31 368.4 749.84 368.39 749.37 368.39C737.52 368.39 727.61 371.54 719.64 377.82C718.63 378.62 717.65 379.46 716.69 380.34C716.63 379.3 716.54 378.26 716.41 377.23C716.29 376.19 716.14 375.16 715.96 374.13C715.78 373.1 715.57 372.08 715.33 371.06C715.09 370.05 714.83 369.04 714.53 368.03C711.41 357.91 705.58 352.85 697.04 352.85C690.52 352.85 683.97 355.66 677.39 361.27C671.39 366.41 666.09 373.4 661.49 382.21C661.27 381.89 661.05 381.57 660.82 381.26C660.59 380.94 660.35 380.64 660.11 380.34C659.86 380.04 659.61 379.74 659.34 379.46C659.08 379.17 658.81 378.89 658.54 378.61C653.92 374.07 648.02 373.37 640.83 376.53C640.22 370.08 638.8 365.09 636.58 361.56C632.55 355.13 625.5 351.91 615.42 351.91C613.7 351.87 611.98 351.94 610.26 352.12C608.55 352.3 606.85 352.58 605.17 352.97C603.49 353.35 601.83 353.85 600.22 354.44C598.6 355.03 597.02 355.73 595.49 356.52C593.97 357.33 592.52 358.26 591.16 359.32C589.8 360.38 588.54 361.56 587.39 362.84C586.24 364.12 585.2 365.5 584.29 366.96C583.38 368.42 582.6 369.96 581.95 371.56C581.95 371.56 581.94 371.57 581.94 371.57C581.93 371.57 581.93 371.57 581.92 371.57C581.91 371.57 581.91 371.57 581.9 371.57C581.89 371.57 581.89 371.56 581.88 371.56C578.14 368.25 573.1 366.59 566.77 366.59C558.66 366.59 551.6 368.2 545.61 371.41C536.83 376.07 530.76 383.94 527.4 395.02L754.98 491.4L754.98 368.97M73.31 336.73C64.38 329.05 55.34 325.21 46.17 325.21C43.06 325.22 39.96 325.43 36.88 325.83C33.79 326.23 30.74 326.83 27.73 327.62C24.72 328.41 21.77 329.39 18.88 330.55C16 331.71 13.19 333.05 10.47 334.57C8.97 335.35 7.5 336.21 6.07 337.14C4.64 338.06 3.26 339.06 1.93 340.11C0.59 341.17 -0.69 342.29 -1.92 343.46C-3.15 344.64 -4.32 345.87 -5.43 347.16L-5.43 489.6L256.7 398.69C258.09 388.86 255.57 378.88 249.14 368.75C242.04 357.53 233.12 351.91 222.37 351.91C207.81 351.91 197.87 359.64 192.57 375.09C192.2 374.44 191.75 373.85 191.22 373.33C190.69 372.81 190.09 372.37 189.44 372.01C188.79 371.66 188.09 371.4 187.37 371.24C186.64 371.08 185.9 371.02 185.16 371.06C184.78 371.04 184.39 371.04 184.01 371.05C183.63 371.07 183.25 371.09 182.87 371.14C182.49 371.18 182.11 371.24 181.74 371.31C181.36 371.38 180.99 371.46 180.62 371.56C180.07 371.74 179.42 371.98 178.68 372.28C176.78 367.33 174.15 363.63 170.76 361.2C170.23 360.77 169.65 360.38 169.05 360.03C168.45 359.69 167.83 359.39 167.18 359.15C166.53 358.91 165.87 358.71 165.19 358.57C164.51 358.44 163.83 358.35 163.13 358.32C159.3 358.32 154.67 360.84 149.24 365.88C148.78 366.3 148.32 366.73 147.87 367.17C147.42 367.6 146.97 368.05 146.53 368.5C146.1 368.95 145.66 369.4 145.24 369.87C144.82 370.33 144.4 370.8 143.99 371.28C144.48 364.66 142.13 358.37 136.94 352.42C131.18 345.89 124.32 342.63 116.35 342.63C103.2 342.63 93.58 346.28 87.49 353.57C86.56 351.98 85.57 350.42 84.5 348.92C83.44 347.41 82.32 345.95 81.13 344.53C79.94 343.12 78.69 341.76 77.39 340.46C76.08 339.16 74.72 337.91 73.31 336.73L73.31 336.73Z" />
				</g>
			</g>
		</g>
		<g id="Group_457">
			<g id="Group_456">
				<g id="Layer0_10_FILL">
					<path id="Path_883" class="shp4" d="M722.96 136.02C715.6 135.87 709.47 138.13 704.56 142.79C703.8 143.51 703.08 144.27 702.42 145.08C701.75 145.88 701.14 146.73 700.59 147.62C700.03 148.5 699.54 149.42 699.1 150.37C698.67 151.32 698.29 152.3 697.99 153.29C697.54 153.23 697.09 153.17 696.64 153.12C696.19 153.07 695.74 153.02 695.29 152.98C694.84 152.95 694.38 152.92 693.93 152.89C693.48 152.87 693.03 152.85 692.58 152.85C689.37 152.77 686.17 152.93 683 153.33C679.82 153.73 676.68 154.36 673.6 155.23C670.52 156.1 667.51 157.2 664.59 158.52C661.67 159.84 658.86 161.38 656.18 163.12C655.16 163.74 654.17 164.4 653.19 165.08C652.22 165.77 651.27 166.48 650.33 167.22C649.4 167.96 648.49 168.73 647.61 169.52C646.72 170.32 645.86 171.14 645.02 171.98C644.55 171.52 644.06 171.08 643.56 170.66C643.06 170.23 642.54 169.83 642 169.45C641.47 169.07 640.92 168.71 640.35 168.37C639.79 168.04 639.21 167.72 638.63 167.43C634.66 165.25 631.2 164.13 628.26 164.07C616.8 163.83 607.2 167.73 599.45 175.77C595.12 180.18 592.22 184.51 590.75 188.76C590.54 188.62 590.33 188.48 590.12 188.35C589.9 188.22 589.69 188.09 589.47 187.97C589.24 187.85 589.02 187.73 588.79 187.62C588.57 187.51 588.34 187.4 588.11 187.3C587.22 186.96 586.31 186.67 585.39 186.41C584.47 186.16 583.54 185.95 582.6 185.78C581.66 185.62 580.72 185.5 579.76 185.42C578.81 185.34 577.86 185.31 576.91 185.33C576.31 185.31 575.71 185.31 575.11 185.33C574.5 185.34 573.9 185.38 573.31 185.42C572.71 185.47 572.11 185.54 571.51 185.62C570.92 185.7 570.33 185.8 569.74 185.91C568.94 186.37 568.18 186.89 567.46 187.47C566.74 188.04 566.06 188.67 565.43 189.34C564.8 190.01 564.22 190.72 563.69 191.48C563.16 192.23 562.69 193.03 562.28 193.85C563.81 195.4 569.69 196.43 579.94 196.96C582.3 197.06 593.36 197.29 613.1 197.66C663.95 203.41 699.57 210.38 719.96 218.57C734.82 224.46 749.39 231.03 763.69 238.29L765.63 145.89C762.06 144.03 759.27 143.08 757.27 143.04C756.37 143.01 755.48 143.02 754.59 143.07C753.7 143.13 752.81 143.22 751.93 143.35C751.04 143.48 750.17 143.66 749.3 143.87C748.43 144.08 747.57 144.33 746.73 144.62C746.36 144.75 745.99 144.89 745.62 145.03C745.25 145.17 744.89 145.33 744.53 145.49C744.17 145.65 743.81 145.81 743.46 145.99C743.1 146.16 742.75 146.35 742.41 146.54C738.63 139.72 732.14 136.22 722.96 136.02L722.96 136.02Z" />
					<path id="Path_884" class="shp3" d="M652.98 133.35C645.18 133.18 637.64 136.46 630.37 143.17C629.23 144.18 628.16 145.25 627.16 146.39C626.16 147.53 625.24 148.73 624.39 149.99C623.54 151.24 622.77 152.55 622.08 153.9C621.4 155.25 620.8 156.65 620.29 158.07C619.85 157.97 619.4 157.87 618.95 157.79C618.51 157.71 618.06 157.65 617.61 157.59C617.15 157.54 616.7 157.5 616.25 157.47C615.8 157.44 615.34 157.43 614.89 157.42C608.11 157.28 601.86 160.98 596.13 168.53C595.27 169.65 594.46 170.8 593.69 171.97C592.93 173.15 592.21 174.36 591.54 175.59C590.87 176.83 590.25 178.09 589.68 179.37C589.11 180.65 588.59 181.96 588.13 183.28C587.37 182.95 586.64 182.67 585.93 182.44C585.66 182.39 585.38 182.35 585.1 182.31C584.83 182.27 584.55 182.25 584.27 182.22C583.99 182.2 583.71 182.18 583.43 182.17C583.15 182.16 582.88 182.16 582.6 182.16C581.62 182.16 580.65 182.22 579.68 182.34C578.71 182.46 577.75 182.64 576.8 182.88C575.86 183.12 574.93 183.42 574.02 183.77C573.11 184.13 572.22 184.54 571.37 185L569.74 185.9C570.33 185.79 570.92 185.69 571.52 185.61C572.11 185.53 572.71 185.47 573.31 185.42C573.91 185.37 574.51 185.34 575.11 185.32C575.71 185.3 576.31 185.3 576.91 185.32C577.86 185.31 578.82 185.34 579.77 185.41C580.72 185.49 581.67 185.61 582.6 185.78C583.54 185.94 584.47 186.15 585.39 186.41C586.31 186.66 587.22 186.96 588.11 187.29C588.34 187.4 588.57 187.5 588.8 187.61C589.02 187.72 589.25 187.84 589.47 187.96C589.69 188.08 589.91 188.21 590.12 188.34C590.34 188.47 590.55 188.61 590.76 188.75C592.23 184.51 595.13 180.17 599.46 175.76C607.21 167.72 616.81 163.82 628.26 164.06C631.21 164.12 634.66 165.24 638.63 167.42C639.22 167.72 639.79 168.03 640.36 168.37C640.92 168.71 641.47 169.06 642.01 169.45C642.54 169.83 643.06 170.23 643.56 170.65C644.07 171.07 644.55 171.51 645.02 171.97C645.86 171.13 646.72 170.31 647.61 169.52C648.5 168.72 649.41 167.95 650.34 167.21C651.27 166.47 652.22 165.76 653.2 165.08C654.17 164.39 655.17 163.74 656.18 163.11C658.87 161.37 661.68 159.83 664.59 158.51C667.51 157.19 670.52 156.1 673.6 155.23C676.68 154.36 679.83 153.72 683 153.32C686.18 152.92 689.38 152.76 692.58 152.84C693.03 152.85 693.48 152.86 693.94 152.89C694.39 152.91 694.84 152.94 695.29 152.98C695.74 153.02 696.19 153.06 696.64 153.11C697.09 153.16 697.54 153.22 697.99 153.29C698.3 152.29 698.67 151.31 699.1 150.36C699.54 149.41 700.04 148.49 700.59 147.61C701.14 146.72 701.76 145.88 702.42 145.07C703.08 144.26 703.8 143.5 704.56 142.79C709.48 138.12 715.61 135.87 722.96 136.02C732.15 136.21 738.63 139.71 742.41 146.53C742.75 146.33 743.1 146.15 743.46 145.98C743.81 145.8 744.17 145.63 744.53 145.47C744.89 145.31 745.25 145.16 745.62 145.02C745.99 144.87 746.36 144.74 746.73 144.61C747.57 144.32 748.43 144.07 749.3 143.86C750.17 143.64 751.04 143.47 751.93 143.34C752.81 143.2 753.7 143.11 754.59 143.06C755.48 143.01 756.37 143 757.27 143.03C759.27 143.07 762.06 144.02 765.63 145.88L765.71 141.94C765.04 141.58 764.34 141.26 763.63 140.98C762.92 140.69 762.2 140.45 761.46 140.25C760.72 140.05 759.97 139.89 759.22 139.77C758.46 139.65 757.7 139.58 756.93 139.54C755.7 139.5 754.46 139.52 753.22 139.61C751.98 139.7 750.75 139.86 749.54 140.09C748.32 140.32 747.11 140.61 745.93 140.97C744.74 141.33 743.57 141.75 742.43 142.24C742.21 141.6 741.98 140.96 741.73 140.32C741.48 139.69 741.22 139.06 740.95 138.43C740.68 137.81 740.39 137.19 740.1 136.58C739.8 135.96 739.5 135.35 739.18 134.75C734.98 126.54 729.98 122.38 724.19 122.26C720.14 122.17 714.15 124.92 706.23 130.51C697.53 136.62 692.99 142.76 692.59 148.95C689.05 147.67 683.48 148.72 675.87 152.08C675.43 145.56 672.79 140.71 667.95 137.53C664.03 134.87 659.04 133.48 652.98 133.35L652.98 133.35Z" />
				</g>
			</g>
		</g>
		<g id="Group_459">
			<g id="Group_458">
				<g id="Layer0_11_FILL">
					<path id="Path_885" class="shp4" d="M64.65 224.24C64.17 224.59 63.7 224.97 63.26 225.37C62.81 225.76 62.39 226.19 61.99 226.63C61.59 227.08 61.21 227.54 60.86 228.03C60.51 228.51 60.19 229.01 59.89 229.53C59.81 229.46 59.72 229.38 59.61 229.29C58.46 228.34 57.24 227.49 55.96 226.74C54.67 225.99 53.32 225.35 51.93 224.82C50.53 224.3 49.1 223.89 47.64 223.61C46.18 223.32 44.7 223.16 43.21 223.13C41.94 223.1 40.68 223.14 39.42 223.24C38.16 223.34 36.9 223.49 35.66 223.71C34.41 223.93 33.17 224.21 31.96 224.54C30.74 224.88 29.53 225.27 28.35 225.73C27.54 226.01 26.74 226.32 25.96 226.68C25.18 227.03 24.41 227.43 23.67 227.85C22.92 228.28 22.2 228.74 21.5 229.24C20.8 229.73 20.12 230.26 19.47 230.82C19.38 230.48 19.28 230.14 19.18 229.8C19.07 229.46 18.97 229.13 18.85 228.79C18.74 228.46 18.62 228.13 18.49 227.8C18.36 227.47 18.23 227.14 18.09 226.82C14.11 217.9 7.33 213.27 -2.27 212.95C-3.46 212.95 -4.65 213 -5.83 213.09C-7.02 213.18 -8.2 213.32 -9.38 213.5C-10.55 213.68 -11.72 213.91 -12.88 214.18C-14.04 214.45 -15.18 214.76 -16.32 215.12L-17.06 215.32C-24.76 222.29 -28.99 232.66 -29.74 246.44L-31 288.2C0.96 277 36.82 267.51 76.58 259.74C118.63 251.47 149.03 248.68 167.76 251.37C168.76 247.89 167.57 245.46 164.21 244.09C163.87 243.95 163.53 243.83 163.18 243.73C162.83 243.62 162.48 243.54 162.12 243.48C161.77 243.41 161.41 243.36 161.05 243.34C160.69 243.31 160.32 243.3 159.96 243.31C159.61 243.34 159.26 243.38 158.91 243.43C158.56 243.49 158.21 243.55 157.86 243.63C157.52 243.71 157.17 243.8 156.84 243.91C156.5 244.02 156.16 244.13 155.83 244.27C155.55 243.96 155.27 243.67 154.97 243.38C154.68 243.09 154.38 242.81 154.08 242.54C153.77 242.27 153.46 242 153.14 241.74C152.82 241.48 152.49 241.23 152.16 240.99C151.6 240.56 151.02 240.16 150.41 239.78C149.81 239.41 149.19 239.06 148.56 238.75C147.92 238.44 147.27 238.15 146.61 237.9C145.95 237.65 145.28 237.42 144.59 237.24C143.8 237.3 143.01 237.4 142.22 237.53C141.43 237.66 140.65 237.82 139.88 238.02C139.11 238.21 138.34 238.44 137.59 238.7C136.83 238.96 136.09 239.25 135.36 239.57C134.32 240.04 133.3 240.55 132.29 241.08C131.28 241.62 130.29 242.19 129.32 242.79C128.34 243.39 127.39 244.02 126.46 244.68C125.52 245.34 124.61 246.03 123.72 246.75C123.73 246.65 123.74 246.56 123.74 246.46C123.75 246.37 123.76 246.27 123.76 246.18C123.77 246.08 123.77 245.98 123.77 245.89C123.78 245.79 123.78 245.7 123.78 245.6C123.79 244.85 123.78 244.09 123.74 243.33C123.7 242.58 123.63 241.82 123.54 241.07C123.45 240.32 123.33 239.57 123.19 238.83C123.05 238.09 122.88 237.35 122.69 236.62C121.43 232.37 119.27 230.2 116.21 230.1C115.61 230.08 115.01 230.11 114.42 230.19C113.83 230.26 113.25 230.39 112.67 230.55C112.1 230.72 111.54 230.93 111 231.18C110.46 231.43 109.94 231.72 109.44 232.05C109.09 232.27 108.75 232.51 108.41 232.77C108.08 233.02 107.76 233.28 107.45 233.56C107.13 233.84 106.83 234.13 106.54 234.43C106.25 234.73 105.98 235.04 105.71 235.36C105.62 235.16 105.52 234.97 105.42 234.78C105.32 234.58 105.21 234.4 105.09 234.21C104.98 234.02 104.86 233.84 104.73 233.66C104.6 233.48 104.47 233.31 104.34 233.14C101.89 230.19 97.95 228.62 92.52 228.44C92.1 228.42 91.68 228.42 91.26 228.43C90.84 228.44 90.43 228.47 90.01 228.51C89.59 228.56 89.18 228.62 88.76 228.69C88.35 228.77 87.94 228.86 87.53 228.96C87.48 228.63 87.41 228.31 87.33 227.99C87.25 227.67 87.16 227.35 87.06 227.04C86.96 226.72 86.85 226.41 86.73 226.1C86.61 225.8 86.47 225.49 86.33 225.19C84.69 221.74 81.8 219.94 77.67 219.8C76.5 219.78 75.33 219.86 74.18 220.04C73.02 220.22 71.88 220.51 70.78 220.88C69.67 221.26 68.59 221.74 67.57 222.3C66.54 222.86 65.57 223.51 64.65 224.24L64.65 224.24Z" />
					<path id="Path_886" class="shp3" d="M88.97 213.3C86.75 206.19 82.81 202.54 77.15 202.35C72.22 202.19 67.19 205.19 62.07 211.37C61.28 212.31 60.52 213.28 59.81 214.28C59.1 215.29 58.43 216.32 57.8 217.38C57.18 218.44 56.6 219.52 56.07 220.63C55.54 221.74 55.05 222.87 54.62 224.02C54.28 223.6 53.94 223.21 53.59 222.84C50.56 219.76 46.53 218.13 41.48 217.97C39.99 217.89 38.5 217.95 37.02 218.14C35.53 218.33 34.07 218.64 32.65 219.09C31.22 219.53 29.84 220.11 28.51 220.79C27.19 221.48 25.93 222.29 24.74 223.2C24.57 223.33 24.4 223.46 24.24 223.59C24.07 223.73 23.91 223.86 23.74 224C23.58 224.14 23.42 224.28 23.26 224.42C23.1 224.56 22.95 224.71 22.79 224.85C22.48 223.89 22.15 223 21.81 222.18C17.92 212.8 11.28 207.95 1.92 207.64C-4.58 207.42 -10.74 209.83 -16.55 214.88L-17.06 215.32C-16.82 215.25 -16.56 215.18 -16.32 215.11C-15.19 214.76 -14.04 214.45 -12.88 214.18C-11.72 213.91 -10.55 213.68 -9.38 213.5C-8.2 213.32 -7.02 213.18 -5.83 213.09C-4.65 213 -3.46 212.95 -2.27 212.95C7.33 213.27 14.11 217.89 18.09 226.82C18.23 227.14 18.36 227.47 18.49 227.8C18.61 228.13 18.74 228.46 18.85 228.79C18.97 229.13 19.07 229.46 19.18 229.8C19.28 230.14 19.38 230.48 19.46 230.82C20.12 230.26 20.79 229.73 21.5 229.24C22.2 228.74 22.92 228.28 23.67 227.85C24.41 227.43 25.18 227.03 25.96 226.68C26.74 226.32 27.54 226.01 28.35 225.72C29.53 225.27 30.74 224.88 31.95 224.54C33.17 224.21 34.41 223.93 35.65 223.71C36.9 223.49 38.16 223.33 39.42 223.24C40.68 223.14 41.94 223.1 43.21 223.12C44.69 223.16 46.18 223.32 47.64 223.61C49.1 223.89 50.53 224.3 51.93 224.82C53.32 225.35 54.67 225.99 55.95 226.74C57.24 227.48 58.46 228.34 59.61 229.29C59.72 229.38 59.81 229.46 59.89 229.53C60.19 229.01 60.51 228.51 60.86 228.02C61.21 227.54 61.59 227.07 61.99 226.63C62.39 226.19 62.81 225.76 63.25 225.36C63.7 224.97 64.17 224.59 64.65 224.24C65.57 223.51 66.54 222.86 67.57 222.3C68.59 221.74 69.66 221.27 70.77 220.89C71.88 220.51 73.02 220.23 74.17 220.05C75.33 219.87 76.5 219.79 77.67 219.8C81.8 219.94 84.68 221.74 86.33 225.2C86.47 225.5 86.6 225.8 86.72 226.11C86.84 226.42 86.95 226.73 87.05 227.04C87.15 227.36 87.24 227.68 87.32 228C87.4 228.32 87.47 228.64 87.53 228.97C87.93 228.86 88.34 228.77 88.76 228.7C89.17 228.62 89.58 228.56 90 228.52C90.42 228.48 90.84 228.45 91.26 228.44C91.68 228.42 92.1 228.43 92.51 228.44C97.94 228.63 101.88 230.19 104.33 233.14C104.47 233.32 104.6 233.49 104.72 233.67C104.85 233.85 104.97 234.03 105.08 234.22C105.2 234.4 105.31 234.59 105.41 234.78C105.51 234.98 105.61 235.17 105.7 235.37C105.97 235.05 106.25 234.74 106.54 234.43C106.83 234.13 107.13 233.84 107.44 233.57C107.75 233.29 108.07 233.02 108.41 232.77C108.74 232.52 109.08 232.28 109.43 232.05C109.93 231.72 110.45 231.43 110.99 231.18C111.53 230.93 112.09 230.72 112.67 230.56C113.24 230.39 113.82 230.27 114.42 230.19C115.01 230.12 115.6 230.09 116.2 230.1C119.26 230.2 121.42 232.38 122.68 236.62C122.87 237.36 123.04 238.09 123.18 238.84C123.33 239.58 123.44 240.33 123.53 241.08C123.63 241.83 123.69 242.58 123.73 243.34C123.77 244.1 123.78 244.85 123.77 245.61C123.77 245.7 123.77 245.8 123.77 245.9C123.76 245.99 123.76 246.09 123.76 246.18C123.75 246.28 123.75 246.37 123.74 246.47C123.73 246.56 123.72 246.66 123.71 246.75C124.6 246.04 125.51 245.35 126.45 244.69C127.38 244.03 128.34 243.4 129.31 242.8C130.28 242.2 131.27 241.63 132.28 241.09C133.29 240.55 134.31 240.05 135.35 239.57C136.08 239.25 136.83 238.96 137.58 238.7C138.34 238.45 139.1 238.22 139.87 238.02C140.65 237.83 141.43 237.67 142.21 237.54C143 237.4 143.79 237.31 144.59 237.24C144.27 237.16 143.96 237.08 143.64 237.01C143.32 236.94 143 236.88 142.68 236.84C142.36 236.79 142.04 236.75 141.72 236.72C141.39 236.69 141.07 236.67 140.74 236.66C139.86 236.61 138.97 236.62 138.09 236.69C137.21 236.76 136.33 236.89 135.47 237.07C134.6 237.26 133.75 237.5 132.92 237.79C132.08 238.09 131.27 238.44 130.48 238.84C130.09 239.03 129.71 239.24 129.34 239.46C128.97 239.69 128.61 239.94 128.26 240.2C127.92 240.46 127.58 240.74 127.26 241.04C126.94 241.33 126.64 241.64 126.35 241.97L126.35 241.34C126.37 240.26 126.35 239.19 126.29 238.12C126.23 237.05 126.14 235.98 126 234.91C125.87 233.85 125.7 232.79 125.49 231.74C125.28 230.69 125.03 229.64 124.75 228.61C123.22 223.32 120.75 220.62 117.35 220.51C113.3 220.37 109.02 222.54 104.5 227.02C104.42 226.91 104.34 226.81 104.25 226.72C104.16 226.62 104.07 226.52 103.98 226.43C103.89 226.33 103.8 226.24 103.7 226.15C103.61 226.06 103.51 225.97 103.41 225.89C100.73 223.65 96.49 223.22 90.68 224.61C90.68 223.65 90.65 222.69 90.58 221.74C90.51 220.78 90.4 219.83 90.26 218.89C90.11 217.94 89.93 217 89.72 216.07C89.5 215.14 89.25 214.21 88.97 213.3L88.97 213.3Z" />
				</g>
			</g>
		</g>
	</g>
</svg>